G75*
%MOIN*%
%OFA0B0*%
%FSLAX25Y25*%
%IPPOS*%
%LPD*%
%AMOC8*
5,1,8,0,0,1.08239X$1,22.5*
%
%ADD10C,0.00500*%
%ADD11C,0.00400*%
%ADD12C,0.00600*%
%ADD13R,0.10000X0.02000*%
%ADD14R,0.03000X0.07500*%
%ADD15C,0.00000*%
D10*
X0035250Y0021001D02*
X0036001Y0020250D01*
X0036751Y0020250D01*
X0037502Y0021001D01*
X0037502Y0024754D01*
X0036751Y0024754D02*
X0038253Y0024754D01*
X0037502Y0026249D02*
X0038253Y0026999D01*
X0038253Y0030753D01*
X0036001Y0030753D01*
X0035250Y0030002D01*
X0035250Y0028501D01*
X0036001Y0027750D01*
X0038253Y0027750D01*
X0039854Y0027750D02*
X0041355Y0027750D01*
X0040605Y0027750D02*
X0040605Y0030753D01*
X0039854Y0030753D01*
X0040605Y0032254D02*
X0040605Y0033004D01*
X0040605Y0035250D02*
X0039854Y0036001D01*
X0039854Y0037502D01*
X0040605Y0038253D01*
X0042106Y0038253D01*
X0042856Y0037502D01*
X0042856Y0036001D01*
X0042106Y0035250D01*
X0040605Y0035250D01*
X0038253Y0036001D02*
X0037502Y0035250D01*
X0036001Y0035250D01*
X0035250Y0036001D01*
X0035250Y0039003D01*
X0036001Y0039754D01*
X0037502Y0039754D01*
X0038253Y0039003D01*
X0039854Y0042750D02*
X0041355Y0042750D01*
X0040605Y0042750D02*
X0040605Y0045753D01*
X0039854Y0045753D01*
X0040605Y0047254D02*
X0040605Y0048004D01*
X0040605Y0050250D02*
X0039854Y0051001D01*
X0040605Y0051751D01*
X0042856Y0051751D01*
X0042856Y0052502D02*
X0042856Y0050250D01*
X0040605Y0050250D01*
X0038253Y0051001D02*
X0037502Y0050250D01*
X0036001Y0050250D01*
X0035250Y0051001D01*
X0035250Y0054003D01*
X0036001Y0054754D01*
X0037502Y0054754D01*
X0038253Y0054003D01*
X0040605Y0053253D02*
X0042106Y0053253D01*
X0042856Y0052502D01*
X0044458Y0052502D02*
X0045208Y0053253D01*
X0047460Y0053253D01*
X0047460Y0054754D02*
X0047460Y0050250D01*
X0045208Y0050250D01*
X0044458Y0051001D01*
X0044458Y0052502D01*
X0049062Y0052502D02*
X0049812Y0053253D01*
X0052064Y0053253D01*
X0051314Y0051751D02*
X0049812Y0051751D01*
X0049062Y0052502D01*
X0049062Y0050250D02*
X0051314Y0050250D01*
X0052064Y0051001D01*
X0051314Y0051751D01*
X0053666Y0051001D02*
X0054416Y0050250D01*
X0055918Y0050250D01*
X0056668Y0051001D01*
X0056668Y0052502D01*
X0055918Y0053253D01*
X0054416Y0053253D01*
X0053666Y0052502D01*
X0053666Y0051001D01*
X0053632Y0047254D02*
X0055134Y0045753D01*
X0055134Y0042750D01*
X0055134Y0045002D02*
X0052131Y0045002D01*
X0052131Y0045753D02*
X0053632Y0047254D01*
X0052131Y0045753D02*
X0052131Y0042750D01*
X0050530Y0042750D02*
X0050530Y0047254D01*
X0050530Y0045002D02*
X0047527Y0045002D01*
X0047527Y0042750D02*
X0047527Y0047254D01*
X0056735Y0047254D02*
X0059738Y0047254D01*
X0058236Y0047254D02*
X0058236Y0042750D01*
X0057486Y0040504D02*
X0057486Y0039754D01*
X0057486Y0038253D02*
X0057486Y0035250D01*
X0058236Y0035250D02*
X0056735Y0035250D01*
X0055167Y0035250D02*
X0053666Y0035250D01*
X0054416Y0035250D02*
X0054416Y0039754D01*
X0053666Y0039754D01*
X0052064Y0037502D02*
X0052064Y0036001D01*
X0051314Y0035250D01*
X0049062Y0035250D01*
X0049062Y0033749D02*
X0049062Y0038253D01*
X0051314Y0038253D01*
X0052064Y0037502D01*
X0047460Y0037502D02*
X0047460Y0035250D01*
X0045959Y0035250D02*
X0045959Y0037502D01*
X0046710Y0038253D01*
X0047460Y0037502D01*
X0045959Y0037502D02*
X0045208Y0038253D01*
X0044458Y0038253D01*
X0044458Y0035250D01*
X0045992Y0032254D02*
X0045992Y0027750D01*
X0044424Y0027750D02*
X0043674Y0028501D01*
X0043674Y0031503D01*
X0044424Y0030753D02*
X0042923Y0030753D01*
X0045992Y0030002D02*
X0046743Y0030753D01*
X0048244Y0030753D01*
X0048995Y0030002D01*
X0048995Y0027750D01*
X0050596Y0028501D02*
X0051347Y0027750D01*
X0053599Y0027750D01*
X0053599Y0030753D01*
X0055200Y0030753D02*
X0057452Y0030753D01*
X0058203Y0030002D01*
X0058203Y0028501D01*
X0057452Y0027750D01*
X0055200Y0027750D01*
X0055200Y0032254D01*
X0059804Y0028501D02*
X0060555Y0028501D01*
X0060555Y0027750D01*
X0059804Y0027750D01*
X0059804Y0028501D01*
X0062106Y0028501D02*
X0062857Y0027750D01*
X0065109Y0027750D01*
X0066710Y0028501D02*
X0067461Y0027750D01*
X0068962Y0027750D01*
X0069713Y0028501D01*
X0069713Y0030002D01*
X0068962Y0030753D01*
X0067461Y0030753D01*
X0066710Y0030002D01*
X0066710Y0028501D01*
X0065109Y0030753D02*
X0062857Y0030753D01*
X0062106Y0030002D01*
X0062106Y0028501D01*
X0062857Y0024754D02*
X0062106Y0024003D01*
X0062106Y0021001D01*
X0062857Y0020250D01*
X0064358Y0020250D01*
X0065109Y0021001D01*
X0065109Y0022502D01*
X0063608Y0022502D01*
X0065109Y0024003D02*
X0064358Y0024754D01*
X0062857Y0024754D01*
X0067461Y0023253D02*
X0068962Y0023253D01*
X0069713Y0022502D01*
X0069713Y0020250D01*
X0067461Y0020250D01*
X0066710Y0021001D01*
X0067461Y0021751D01*
X0069713Y0021751D01*
X0071314Y0021751D02*
X0072815Y0023253D01*
X0073566Y0023253D01*
X0075151Y0022502D02*
X0075901Y0023253D01*
X0078153Y0023253D01*
X0079755Y0023253D02*
X0080505Y0023253D01*
X0080505Y0020250D01*
X0079755Y0020250D02*
X0081256Y0020250D01*
X0082824Y0021001D02*
X0083575Y0020250D01*
X0085826Y0020250D01*
X0085826Y0022502D01*
X0085076Y0023253D01*
X0083575Y0023253D01*
X0083575Y0021751D02*
X0085826Y0021751D01*
X0083575Y0021751D02*
X0082824Y0021001D01*
X0080505Y0024754D02*
X0080505Y0025504D01*
X0080522Y0027750D02*
X0080522Y0030753D01*
X0082023Y0030753D02*
X0080522Y0029251D01*
X0082023Y0030753D02*
X0082774Y0030753D01*
X0085109Y0030753D02*
X0086610Y0030753D01*
X0087361Y0030002D01*
X0087361Y0027750D01*
X0085109Y0027750D01*
X0084359Y0028501D01*
X0085109Y0029251D01*
X0087361Y0029251D01*
X0088962Y0030002D02*
X0089713Y0030753D01*
X0091965Y0030753D01*
X0093566Y0030753D02*
X0095818Y0030753D01*
X0096569Y0030002D01*
X0096569Y0028501D01*
X0095818Y0027750D01*
X0093566Y0027750D01*
X0093566Y0026249D02*
X0093566Y0030753D01*
X0091965Y0028501D02*
X0091214Y0029251D01*
X0089713Y0029251D01*
X0088962Y0030002D01*
X0088962Y0027750D02*
X0091214Y0027750D01*
X0091965Y0028501D01*
X0098170Y0027750D02*
X0100422Y0027750D01*
X0101173Y0028501D01*
X0101173Y0030002D01*
X0100422Y0030753D01*
X0098170Y0030753D01*
X0098170Y0032254D02*
X0098170Y0027750D01*
X0102774Y0028501D02*
X0103525Y0027750D01*
X0105026Y0027750D01*
X0105777Y0029251D02*
X0102774Y0029251D01*
X0102774Y0028501D02*
X0102774Y0030002D01*
X0103525Y0030753D01*
X0105026Y0030753D01*
X0105777Y0030002D01*
X0105777Y0029251D01*
X0107378Y0029251D02*
X0108879Y0030753D01*
X0109630Y0030753D01*
X0111215Y0030753D02*
X0111215Y0027750D01*
X0111215Y0029251D02*
X0112716Y0030753D01*
X0113467Y0030753D01*
X0115051Y0030753D02*
X0115051Y0028501D01*
X0115802Y0027750D01*
X0118054Y0027750D01*
X0118054Y0026999D02*
X0117303Y0026249D01*
X0116553Y0026249D01*
X0118054Y0026999D02*
X0118054Y0030753D01*
X0119655Y0030753D02*
X0121907Y0030753D01*
X0122658Y0030002D01*
X0122658Y0028501D01*
X0121907Y0027750D01*
X0119655Y0027750D01*
X0119655Y0026249D02*
X0119655Y0030753D01*
X0116586Y0033749D02*
X0116586Y0038253D01*
X0118838Y0038253D01*
X0119589Y0037502D01*
X0119589Y0036001D01*
X0118838Y0035250D01*
X0116586Y0035250D01*
X0114985Y0036001D02*
X0114234Y0036751D01*
X0112733Y0036751D01*
X0111982Y0037502D01*
X0112733Y0038253D01*
X0114985Y0038253D01*
X0114985Y0036001D02*
X0114234Y0035250D01*
X0111982Y0035250D01*
X0107378Y0030753D02*
X0107378Y0027750D01*
X0104275Y0035250D02*
X0104275Y0039754D01*
X0102774Y0039754D02*
X0105777Y0039754D01*
X0104275Y0042750D02*
X0105777Y0045753D01*
X0107378Y0045002D02*
X0108129Y0045753D01*
X0109630Y0045753D01*
X0110381Y0045002D01*
X0110381Y0044251D01*
X0107378Y0044251D01*
X0107378Y0043501D02*
X0107378Y0045002D01*
X0107378Y0043501D02*
X0108129Y0042750D01*
X0109630Y0042750D01*
X0111982Y0042750D02*
X0111982Y0045753D01*
X0113483Y0045753D02*
X0111982Y0044251D01*
X0113483Y0045753D02*
X0114234Y0045753D01*
X0113500Y0050250D02*
X0112749Y0051001D01*
X0115752Y0054003D01*
X0115752Y0051001D01*
X0115001Y0050250D01*
X0113500Y0050250D01*
X0112749Y0051001D02*
X0112749Y0054003D01*
X0113500Y0054754D01*
X0115001Y0054754D01*
X0115752Y0054003D01*
X0117353Y0053253D02*
X0118855Y0054754D01*
X0118855Y0050250D01*
X0120356Y0050250D02*
X0117353Y0050250D01*
X0120423Y0047254D02*
X0122675Y0047254D01*
X0123425Y0046503D01*
X0123425Y0045753D01*
X0122675Y0045002D01*
X0120423Y0045002D01*
X0122675Y0045002D02*
X0123425Y0044251D01*
X0123425Y0043501D01*
X0122675Y0042750D01*
X0120423Y0042750D01*
X0120423Y0047254D01*
X0122708Y0050250D02*
X0121957Y0051001D01*
X0122708Y0050250D02*
X0124209Y0050250D01*
X0124960Y0051001D01*
X0124960Y0052502D01*
X0124209Y0053253D01*
X0123459Y0053253D01*
X0121957Y0052502D01*
X0121957Y0054754D01*
X0124960Y0054754D01*
X0125777Y0045753D02*
X0125027Y0045002D01*
X0125027Y0043501D01*
X0125777Y0042750D01*
X0127278Y0042750D01*
X0128029Y0043501D01*
X0128029Y0045002D01*
X0127278Y0045753D01*
X0125777Y0045753D01*
X0129630Y0043501D02*
X0130381Y0044251D01*
X0132633Y0044251D01*
X0132633Y0045002D02*
X0132633Y0042750D01*
X0130381Y0042750D01*
X0129630Y0043501D01*
X0130381Y0045753D02*
X0131882Y0045753D01*
X0132633Y0045002D01*
X0134234Y0045753D02*
X0134234Y0042750D01*
X0134234Y0044251D02*
X0135736Y0045753D01*
X0136486Y0045753D01*
X0138071Y0045002D02*
X0138822Y0045753D01*
X0141074Y0045753D01*
X0141074Y0047254D02*
X0141074Y0042750D01*
X0138822Y0042750D01*
X0138071Y0043501D01*
X0138071Y0045002D01*
X0137287Y0040504D02*
X0137287Y0039754D01*
X0137287Y0038253D02*
X0137287Y0035250D01*
X0136536Y0035250D02*
X0138038Y0035250D01*
X0139606Y0036001D02*
X0139606Y0037502D01*
X0140356Y0038253D01*
X0142608Y0038253D01*
X0144960Y0038253D02*
X0146461Y0038253D01*
X0147212Y0037502D01*
X0147212Y0035250D01*
X0144960Y0035250D01*
X0144210Y0036001D01*
X0144960Y0036751D01*
X0147212Y0036751D01*
X0148813Y0038253D02*
X0150315Y0038253D01*
X0149564Y0039003D02*
X0149564Y0036001D01*
X0150315Y0035250D01*
X0151883Y0035250D02*
X0153384Y0035250D01*
X0152633Y0035250D02*
X0152633Y0038253D01*
X0151883Y0038253D01*
X0152633Y0039754D02*
X0152633Y0040504D01*
X0154952Y0037502D02*
X0154952Y0036001D01*
X0155703Y0035250D01*
X0157204Y0035250D01*
X0157955Y0036001D01*
X0157955Y0037502D01*
X0157204Y0038253D01*
X0155703Y0038253D01*
X0154952Y0037502D01*
X0159556Y0038253D02*
X0159556Y0035250D01*
X0159556Y0038253D02*
X0161808Y0038253D01*
X0162558Y0037502D01*
X0162558Y0035250D01*
X0164160Y0035250D02*
X0164160Y0036001D01*
X0164910Y0036001D01*
X0164910Y0035250D01*
X0164160Y0035250D01*
X0164160Y0037502D02*
X0164160Y0038253D01*
X0164910Y0038253D01*
X0164910Y0037502D01*
X0164160Y0037502D01*
X0147212Y0030753D02*
X0144960Y0030753D01*
X0144210Y0030002D01*
X0144960Y0029251D01*
X0146461Y0029251D01*
X0147212Y0028501D01*
X0146461Y0027750D01*
X0144210Y0027750D01*
X0142642Y0027750D02*
X0141891Y0028501D01*
X0141891Y0031503D01*
X0141140Y0030753D02*
X0142642Y0030753D01*
X0139539Y0030002D02*
X0139539Y0027750D01*
X0137287Y0027750D01*
X0136536Y0028501D01*
X0137287Y0029251D01*
X0139539Y0029251D01*
X0139539Y0030002D02*
X0138788Y0030753D01*
X0137287Y0030753D01*
X0134935Y0030002D02*
X0134935Y0027750D01*
X0134935Y0030002D02*
X0134184Y0030753D01*
X0132683Y0030753D01*
X0131932Y0030002D01*
X0131932Y0032254D02*
X0131932Y0027750D01*
X0127328Y0027750D02*
X0130331Y0032254D01*
X0130398Y0035250D02*
X0131899Y0035250D01*
X0131148Y0035250D02*
X0131148Y0038253D01*
X0130398Y0038253D01*
X0128796Y0038253D02*
X0126544Y0038253D01*
X0125794Y0037502D01*
X0125794Y0036001D01*
X0126544Y0035250D01*
X0128796Y0035250D01*
X0133467Y0037502D02*
X0134968Y0037502D01*
X0134218Y0039003D02*
X0134968Y0039754D01*
X0134218Y0039003D02*
X0134218Y0035250D01*
X0136536Y0038253D02*
X0137287Y0038253D01*
X0139606Y0036001D02*
X0140356Y0035250D01*
X0142608Y0035250D01*
X0131148Y0039754D02*
X0131148Y0040504D01*
X0124192Y0037502D02*
X0124192Y0036751D01*
X0121190Y0036751D01*
X0121190Y0036001D02*
X0121190Y0037502D01*
X0121941Y0038253D01*
X0123442Y0038253D01*
X0124192Y0037502D01*
X0123442Y0035250D02*
X0121941Y0035250D01*
X0121190Y0036001D01*
X0125010Y0033004D02*
X0125010Y0032254D01*
X0125010Y0030753D02*
X0125010Y0027750D01*
X0125760Y0027750D02*
X0124259Y0027750D01*
X0124259Y0030753D02*
X0125010Y0030753D01*
X0111148Y0050250D02*
X0108145Y0050250D01*
X0111148Y0053253D01*
X0111148Y0054003D01*
X0110397Y0054754D01*
X0108896Y0054754D01*
X0108145Y0054003D01*
X0101957Y0053253D02*
X0101206Y0053253D01*
X0099705Y0051751D01*
X0099705Y0050250D02*
X0099705Y0053253D01*
X0098104Y0052502D02*
X0098104Y0051751D01*
X0095101Y0051751D01*
X0095101Y0051001D02*
X0095101Y0052502D01*
X0095852Y0053253D01*
X0097353Y0053253D01*
X0098104Y0052502D01*
X0097353Y0050250D02*
X0095852Y0050250D01*
X0095101Y0051001D01*
X0093533Y0050250D02*
X0092782Y0051001D01*
X0092782Y0054003D01*
X0092032Y0053253D02*
X0093533Y0053253D01*
X0090430Y0053253D02*
X0090430Y0050250D01*
X0088178Y0050250D01*
X0087428Y0051001D01*
X0087428Y0053253D01*
X0085826Y0052502D02*
X0085826Y0051001D01*
X0085076Y0050250D01*
X0082824Y0050250D01*
X0082824Y0048749D02*
X0082824Y0053253D01*
X0085076Y0053253D01*
X0085826Y0052502D01*
X0081223Y0052502D02*
X0081223Y0050250D01*
X0079721Y0050250D02*
X0079721Y0052502D01*
X0080472Y0053253D01*
X0081223Y0052502D01*
X0079721Y0052502D02*
X0078971Y0053253D01*
X0078220Y0053253D01*
X0078220Y0050250D01*
X0076619Y0051001D02*
X0076619Y0052502D01*
X0075868Y0053253D01*
X0074367Y0053253D01*
X0073616Y0052502D01*
X0073616Y0051001D01*
X0074367Y0050250D01*
X0075868Y0050250D01*
X0076619Y0051001D01*
X0075901Y0046503D02*
X0075901Y0043501D01*
X0076652Y0042750D01*
X0078220Y0043501D02*
X0078971Y0042750D01*
X0080472Y0042750D01*
X0081223Y0043501D01*
X0081223Y0045002D01*
X0080472Y0045753D01*
X0078971Y0045753D01*
X0078220Y0045002D01*
X0078220Y0043501D01*
X0076652Y0045753D02*
X0075151Y0045753D01*
X0073549Y0045002D02*
X0072799Y0045753D01*
X0071297Y0045753D01*
X0070547Y0045002D01*
X0070547Y0043501D01*
X0071297Y0042750D01*
X0072799Y0042750D01*
X0073549Y0043501D01*
X0073549Y0045002D01*
X0068945Y0047254D02*
X0068945Y0042750D01*
X0065943Y0042750D02*
X0065943Y0047254D01*
X0067444Y0045753D01*
X0068945Y0047254D01*
X0069763Y0050250D02*
X0071264Y0050250D01*
X0072015Y0051001D01*
X0069763Y0050250D02*
X0069012Y0051001D01*
X0069012Y0054003D01*
X0069763Y0054754D01*
X0071264Y0054754D01*
X0072015Y0054003D01*
X0062840Y0053253D02*
X0061339Y0053253D01*
X0062090Y0054003D02*
X0062090Y0051001D01*
X0062840Y0050250D01*
X0059771Y0052502D02*
X0058270Y0052502D01*
X0059020Y0054003D02*
X0059020Y0050250D01*
X0059020Y0054003D02*
X0059771Y0054754D01*
X0060555Y0038253D02*
X0059804Y0037502D01*
X0059804Y0036001D01*
X0060555Y0035250D01*
X0062056Y0035250D01*
X0062807Y0036751D02*
X0059804Y0036751D01*
X0060555Y0038253D02*
X0062056Y0038253D01*
X0062807Y0037502D01*
X0062807Y0036751D01*
X0064408Y0037502D02*
X0065159Y0038253D01*
X0067411Y0038253D01*
X0066660Y0036751D02*
X0065159Y0036751D01*
X0064408Y0037502D01*
X0064408Y0035250D02*
X0066660Y0035250D01*
X0067411Y0036001D01*
X0066660Y0036751D01*
X0071314Y0030753D02*
X0072065Y0030753D01*
X0072815Y0030002D01*
X0073566Y0030753D01*
X0074317Y0030002D01*
X0074317Y0027750D01*
X0072815Y0027750D02*
X0072815Y0030002D01*
X0071314Y0030753D02*
X0071314Y0027750D01*
X0071314Y0023253D02*
X0071314Y0020250D01*
X0075151Y0021001D02*
X0075901Y0020250D01*
X0078153Y0020250D01*
X0075151Y0021001D02*
X0075151Y0022502D01*
X0075918Y0027750D02*
X0078921Y0032254D01*
X0078971Y0035250D02*
X0078971Y0038253D01*
X0078220Y0038253D01*
X0076619Y0038253D02*
X0076619Y0036001D01*
X0075868Y0035250D01*
X0075117Y0036001D01*
X0074367Y0035250D01*
X0073616Y0036001D01*
X0073616Y0038253D01*
X0078220Y0035250D02*
X0079721Y0035250D01*
X0082040Y0036001D02*
X0082040Y0039003D01*
X0081289Y0038253D02*
X0082791Y0038253D01*
X0084359Y0037502D02*
X0085109Y0038253D01*
X0086610Y0038253D01*
X0087361Y0037502D01*
X0087361Y0035250D01*
X0084359Y0035250D02*
X0084359Y0039754D01*
X0082824Y0042750D02*
X0082824Y0045753D01*
X0084325Y0045753D02*
X0082824Y0044251D01*
X0084325Y0045753D02*
X0085076Y0045753D01*
X0091264Y0047254D02*
X0091264Y0042750D01*
X0093516Y0042750D01*
X0094267Y0043501D01*
X0094267Y0046503D01*
X0093516Y0047254D01*
X0091264Y0047254D01*
X0095868Y0045753D02*
X0095868Y0042750D01*
X0095868Y0044251D02*
X0097370Y0045753D01*
X0098120Y0045753D01*
X0099705Y0045753D02*
X0100456Y0045753D01*
X0100456Y0042750D01*
X0101206Y0042750D02*
X0099705Y0042750D01*
X0099672Y0039754D02*
X0101173Y0038253D01*
X0101173Y0035250D01*
X0101173Y0037502D02*
X0098170Y0037502D01*
X0098170Y0038253D02*
X0099672Y0039754D01*
X0098170Y0038253D02*
X0098170Y0035250D01*
X0096569Y0035250D02*
X0096569Y0039754D01*
X0096569Y0037502D02*
X0093566Y0037502D01*
X0093566Y0035250D02*
X0093566Y0039754D01*
X0100456Y0047254D02*
X0100456Y0048004D01*
X0102774Y0045753D02*
X0104275Y0042750D01*
X0082791Y0035250D02*
X0082040Y0036001D01*
X0078971Y0039754D02*
X0078971Y0040504D01*
X0057486Y0038253D02*
X0056735Y0038253D01*
X0050596Y0030753D02*
X0050596Y0028501D01*
X0051297Y0023253D02*
X0049045Y0023253D01*
X0048294Y0022502D01*
X0048294Y0021001D01*
X0049045Y0020250D01*
X0051297Y0020250D01*
X0051297Y0019499D02*
X0051297Y0023253D01*
X0052898Y0022502D02*
X0053649Y0023253D01*
X0055150Y0023253D01*
X0055901Y0022502D01*
X0055901Y0021751D01*
X0052898Y0021751D01*
X0052898Y0021001D02*
X0052898Y0022502D01*
X0052898Y0021001D02*
X0053649Y0020250D01*
X0055150Y0020250D01*
X0051297Y0019499D02*
X0050546Y0018749D01*
X0049796Y0018749D01*
X0046710Y0023253D02*
X0045959Y0023253D01*
X0044458Y0021751D01*
X0044458Y0020250D02*
X0044458Y0023253D01*
X0042856Y0022502D02*
X0042106Y0023253D01*
X0040605Y0023253D01*
X0039854Y0022502D01*
X0039854Y0021001D01*
X0040605Y0020250D01*
X0042106Y0020250D01*
X0042856Y0021001D01*
X0042856Y0022502D01*
X0037502Y0026249D02*
X0036751Y0026249D01*
X0035250Y0042750D02*
X0035250Y0047254D01*
X0037502Y0047254D01*
X0038253Y0046503D01*
X0038253Y0045002D01*
X0037502Y0044251D01*
X0035250Y0044251D01*
X0080473Y0065250D02*
X0081974Y0065250D01*
X0081223Y0065250D02*
X0081223Y0069754D01*
X0080473Y0069754D02*
X0081974Y0069754D01*
X0083542Y0069003D02*
X0083542Y0066001D01*
X0084293Y0065250D01*
X0085794Y0065250D01*
X0086545Y0066001D01*
X0088146Y0066001D02*
X0088897Y0065250D01*
X0090398Y0065250D01*
X0091149Y0066001D01*
X0091149Y0066751D01*
X0090398Y0067502D01*
X0089647Y0067502D01*
X0090398Y0067502D02*
X0091149Y0068253D01*
X0091149Y0069003D01*
X0090398Y0069754D01*
X0088897Y0069754D01*
X0088146Y0069003D01*
X0086545Y0069003D02*
X0085794Y0069754D01*
X0084293Y0069754D01*
X0083542Y0069003D01*
X0088096Y0074967D02*
X0088340Y0075045D01*
X0088582Y0075130D01*
X0088821Y0075220D01*
X0089059Y0075316D01*
X0089294Y0075418D01*
X0089527Y0075526D01*
X0089757Y0075639D01*
X0089984Y0075758D01*
X0090208Y0075882D01*
X0090429Y0076012D01*
X0090646Y0076147D01*
X0090861Y0076288D01*
X0091072Y0076434D01*
X0091279Y0076584D01*
X0091482Y0076740D01*
X0091682Y0076901D01*
X0091878Y0077066D01*
X0092069Y0077236D01*
X0092257Y0077411D01*
X0092440Y0077591D01*
X0092618Y0077774D01*
X0092793Y0077963D01*
X0092962Y0078155D01*
X0093127Y0078351D01*
X0093287Y0078552D01*
X0093441Y0078756D01*
X0093591Y0078964D01*
X0093736Y0079175D01*
X0093876Y0079390D01*
X0094010Y0079608D01*
X0094139Y0079830D01*
X0094262Y0080054D01*
X0094380Y0080282D01*
X0094493Y0080512D01*
X0094599Y0080745D01*
X0094700Y0080981D01*
X0094796Y0081219D01*
X0094885Y0081459D01*
X0094968Y0081701D01*
X0095046Y0081946D01*
X0095117Y0082192D01*
X0095183Y0082440D01*
X0095242Y0082689D01*
X0095296Y0082939D01*
X0095343Y0083191D01*
X0095384Y0083444D01*
X0095419Y0083698D01*
X0095448Y0083953D01*
X0095470Y0084208D01*
X0095486Y0084464D01*
X0095496Y0084720D01*
X0095500Y0084976D01*
X0095497Y0085233D01*
X0095489Y0085489D01*
X0095474Y0085745D01*
X0095452Y0086000D01*
X0093873Y0086000D01*
X0093246Y0091500D02*
X0076754Y0091500D01*
X0076127Y0086000D02*
X0074548Y0086000D01*
X0083873Y0086000D02*
X0086127Y0086000D01*
X0093246Y0091500D02*
X0093399Y0091301D01*
X0093547Y0091099D01*
X0093690Y0090894D01*
X0093828Y0090685D01*
X0093961Y0090473D01*
X0094089Y0090258D01*
X0094211Y0090040D01*
X0094329Y0089819D01*
X0094441Y0089595D01*
X0094548Y0089369D01*
X0094649Y0089140D01*
X0094745Y0088909D01*
X0094836Y0088675D01*
X0094921Y0088440D01*
X0095000Y0088202D01*
X0095073Y0087963D01*
X0095141Y0087722D01*
X0095203Y0087480D01*
X0095259Y0087236D01*
X0095310Y0086990D01*
X0095354Y0086744D01*
X0095393Y0086497D01*
X0095425Y0086249D01*
X0095452Y0086000D01*
X0096147Y0093750D02*
X0096147Y0098254D01*
X0094646Y0096753D01*
X0093045Y0097503D02*
X0092294Y0098254D01*
X0090793Y0098254D01*
X0090042Y0097503D01*
X0090042Y0094501D01*
X0090793Y0093750D01*
X0092294Y0093750D01*
X0093045Y0094501D01*
X0094646Y0093750D02*
X0097649Y0093750D01*
X0088474Y0093750D02*
X0086973Y0093750D01*
X0087723Y0093750D02*
X0087723Y0098254D01*
X0086973Y0098254D02*
X0088474Y0098254D01*
X0076754Y0091500D02*
X0076599Y0091298D01*
X0076449Y0091093D01*
X0076303Y0090884D01*
X0076163Y0090671D01*
X0076028Y0090455D01*
X0075899Y0090236D01*
X0075775Y0090014D01*
X0075656Y0089789D01*
X0075543Y0089561D01*
X0075435Y0089331D01*
X0075333Y0089098D01*
X0075236Y0088862D01*
X0075145Y0088624D01*
X0075060Y0088385D01*
X0074981Y0088143D01*
X0074908Y0087899D01*
X0074841Y0087654D01*
X0074779Y0087407D01*
X0074724Y0087158D01*
X0074675Y0086908D01*
X0074632Y0086658D01*
X0074595Y0086406D01*
X0074564Y0086153D01*
X0074539Y0085900D01*
X0074520Y0085646D01*
X0074507Y0085392D01*
X0074501Y0085138D01*
X0074501Y0084883D01*
X0074507Y0084629D01*
X0074519Y0084374D01*
X0074537Y0084121D01*
X0074561Y0083867D01*
X0074592Y0083615D01*
X0074628Y0083363D01*
X0074671Y0083112D01*
X0074720Y0082862D01*
X0074775Y0082614D01*
X0074836Y0082367D01*
X0074902Y0082121D01*
X0074975Y0081877D01*
X0075054Y0081635D01*
X0075138Y0081395D01*
X0075229Y0081157D01*
X0075325Y0080921D01*
X0075426Y0080688D01*
X0075534Y0080457D01*
X0075646Y0080229D01*
X0075765Y0080004D01*
X0075889Y0079782D01*
X0076018Y0079562D01*
X0076152Y0079346D01*
X0076292Y0079133D01*
X0076437Y0078924D01*
X0076586Y0078718D01*
X0076741Y0078516D01*
X0076901Y0078318D01*
X0077065Y0078124D01*
X0077234Y0077933D01*
X0077407Y0077747D01*
X0077585Y0077565D01*
X0077768Y0077388D01*
X0077954Y0077215D01*
X0078145Y0077046D01*
X0078340Y0076882D01*
X0078539Y0076723D01*
X0078741Y0076569D01*
X0078947Y0076420D01*
X0079157Y0076276D01*
X0079370Y0076137D01*
X0079587Y0076003D01*
X0079806Y0075874D01*
X0080029Y0075751D01*
X0080255Y0075634D01*
X0080483Y0075521D01*
X0080714Y0075415D01*
X0080948Y0075314D01*
X0081184Y0075218D01*
X0081422Y0075129D01*
X0081662Y0075045D01*
X0081904Y0074967D01*
X0161746Y0109042D02*
X0161746Y0111294D01*
X0162497Y0112045D01*
X0165499Y0112045D01*
X0166250Y0111294D01*
X0166250Y0109042D01*
X0161746Y0109042D01*
X0162497Y0113646D02*
X0161746Y0114397D01*
X0161746Y0115898D01*
X0162497Y0116649D01*
X0163247Y0116649D01*
X0166250Y0113646D01*
X0166250Y0116649D01*
X0181746Y0115898D02*
X0183998Y0113646D01*
X0183998Y0116649D01*
X0186250Y0115898D02*
X0181746Y0115898D01*
X0182497Y0112045D02*
X0181746Y0111294D01*
X0181746Y0109042D01*
X0186250Y0109042D01*
X0186250Y0111294D01*
X0185499Y0112045D01*
X0182497Y0112045D01*
X0201746Y0111294D02*
X0201746Y0109042D01*
X0206250Y0109042D01*
X0206250Y0111294D01*
X0205499Y0112045D01*
X0202497Y0112045D01*
X0201746Y0111294D01*
X0203998Y0113646D02*
X0203998Y0115898D01*
X0204749Y0116649D01*
X0205499Y0116649D01*
X0206250Y0115898D01*
X0206250Y0114397D01*
X0205499Y0113646D01*
X0203998Y0113646D01*
X0202497Y0115147D01*
X0201746Y0116649D01*
X0221746Y0115898D02*
X0222497Y0116649D01*
X0223247Y0116649D01*
X0223998Y0115898D01*
X0223998Y0114397D01*
X0223247Y0113646D01*
X0222497Y0113646D01*
X0221746Y0114397D01*
X0221746Y0115898D01*
X0223998Y0115898D02*
X0224749Y0116649D01*
X0225499Y0116649D01*
X0226250Y0115898D01*
X0226250Y0114397D01*
X0225499Y0113646D01*
X0224749Y0113646D01*
X0223998Y0114397D01*
X0222497Y0112045D02*
X0221746Y0111294D01*
X0221746Y0109042D01*
X0226250Y0109042D01*
X0226250Y0111294D01*
X0225499Y0112045D01*
X0222497Y0112045D01*
X0230000Y0130000D02*
X0240000Y0130000D01*
X0240000Y0090000D01*
X0230000Y0090000D01*
X0230000Y0130000D01*
X0244280Y0126833D02*
X0244280Y0123830D01*
X0244280Y0126082D02*
X0247283Y0126082D01*
X0247283Y0126833D02*
X0247283Y0123830D01*
X0248884Y0126082D02*
X0251886Y0126082D01*
X0250385Y0127583D02*
X0250385Y0124581D01*
X0247283Y0126833D02*
X0245781Y0128334D01*
X0244280Y0126833D01*
X0245781Y0118104D02*
X0247283Y0116603D01*
X0247283Y0113600D01*
X0247283Y0115852D02*
X0244280Y0115852D01*
X0244280Y0116603D02*
X0244280Y0113600D01*
X0244280Y0116603D02*
X0245781Y0118104D01*
X0248884Y0115852D02*
X0251886Y0115852D01*
X0250385Y0107013D02*
X0250385Y0104011D01*
X0248884Y0105512D02*
X0251886Y0105512D01*
X0247283Y0106263D02*
X0246532Y0105512D01*
X0244280Y0105512D01*
X0244280Y0103260D02*
X0244280Y0107764D01*
X0246532Y0107764D01*
X0247283Y0107013D01*
X0247283Y0106263D01*
X0246532Y0105512D02*
X0247283Y0104761D01*
X0247283Y0104011D01*
X0246532Y0103260D01*
X0244280Y0103260D01*
X0244060Y0097754D02*
X0246312Y0097754D01*
X0247063Y0097003D01*
X0247063Y0096253D01*
X0246312Y0095502D01*
X0244060Y0095502D01*
X0244060Y0093250D02*
X0244060Y0097754D01*
X0246312Y0095502D02*
X0247063Y0094751D01*
X0247063Y0094001D01*
X0246312Y0093250D01*
X0244060Y0093250D01*
X0248664Y0095502D02*
X0251666Y0095502D01*
X0226250Y0164042D02*
X0221746Y0164042D01*
X0221746Y0166294D01*
X0222497Y0167045D01*
X0225499Y0167045D01*
X0226250Y0166294D01*
X0226250Y0164042D01*
X0230000Y0165000D02*
X0240000Y0165000D01*
X0240000Y0185000D01*
X0230000Y0185000D01*
X0230000Y0165000D01*
X0226250Y0168646D02*
X0225499Y0168646D01*
X0222497Y0171649D01*
X0221746Y0171649D01*
X0221746Y0168646D01*
X0206250Y0169397D02*
X0205499Y0168646D01*
X0206250Y0169397D02*
X0206250Y0170898D01*
X0205499Y0171649D01*
X0203998Y0171649D01*
X0203247Y0170898D01*
X0203247Y0170147D01*
X0203998Y0168646D01*
X0201746Y0168646D01*
X0201746Y0171649D01*
X0202497Y0167045D02*
X0201746Y0166294D01*
X0201746Y0164042D01*
X0206250Y0164042D01*
X0206250Y0166294D01*
X0205499Y0167045D01*
X0202497Y0167045D01*
X0186250Y0166294D02*
X0186250Y0164042D01*
X0181746Y0164042D01*
X0181746Y0166294D01*
X0182497Y0167045D01*
X0185499Y0167045D01*
X0186250Y0166294D01*
X0185499Y0168646D02*
X0186250Y0169397D01*
X0186250Y0170898D01*
X0185499Y0171649D01*
X0184749Y0171649D01*
X0183998Y0170898D01*
X0183998Y0170147D01*
X0183998Y0170898D02*
X0183247Y0171649D01*
X0182497Y0171649D01*
X0181746Y0170898D01*
X0181746Y0169397D01*
X0182497Y0168646D01*
X0166250Y0168646D02*
X0166250Y0171649D01*
X0166250Y0170147D02*
X0161746Y0170147D01*
X0163247Y0168646D01*
X0162497Y0167045D02*
X0161746Y0166294D01*
X0161746Y0164042D01*
X0166250Y0164042D01*
X0166250Y0166294D01*
X0165499Y0167045D01*
X0162497Y0167045D01*
X0210703Y0195194D02*
X0211453Y0194443D01*
X0212204Y0194443D01*
X0212955Y0195194D01*
X0212955Y0198947D01*
X0213705Y0198947D02*
X0212204Y0198947D01*
X0215307Y0198947D02*
X0217559Y0198947D01*
X0218309Y0198196D01*
X0218309Y0196695D01*
X0217559Y0195944D01*
X0215307Y0195944D01*
X0215307Y0194443D02*
X0215307Y0198947D01*
X0219911Y0197445D02*
X0221412Y0198947D01*
X0221412Y0194443D01*
X0219911Y0194443D02*
X0222913Y0194443D01*
X0244830Y0183004D02*
X0244830Y0180001D01*
X0246331Y0178500D01*
X0247833Y0180001D01*
X0247833Y0183004D01*
X0249434Y0180752D02*
X0252436Y0180752D01*
X0250935Y0182253D02*
X0250935Y0179251D01*
X0249544Y0171014D02*
X0252546Y0166510D01*
X0252546Y0171014D01*
X0254148Y0171014D02*
X0256400Y0171014D01*
X0257150Y0170263D01*
X0257150Y0167261D01*
X0256400Y0166510D01*
X0254148Y0166510D01*
X0254148Y0171014D01*
X0249544Y0171014D02*
X0249544Y0166510D01*
X0247943Y0167261D02*
X0247943Y0168762D01*
X0246441Y0168762D01*
X0244940Y0170263D02*
X0244940Y0167261D01*
X0245691Y0166510D01*
X0247192Y0166510D01*
X0247943Y0167261D01*
X0247943Y0170263D02*
X0247192Y0171014D01*
X0245691Y0171014D01*
X0244940Y0170263D01*
X0028386Y0170000D02*
X0028384Y0169810D01*
X0028377Y0169620D01*
X0028365Y0169430D01*
X0028349Y0169240D01*
X0028329Y0169051D01*
X0028303Y0168862D01*
X0028274Y0168674D01*
X0028239Y0168487D01*
X0028200Y0168301D01*
X0028157Y0168116D01*
X0028109Y0167931D01*
X0028057Y0167748D01*
X0028001Y0167567D01*
X0027940Y0167387D01*
X0027874Y0167208D01*
X0027805Y0167031D01*
X0027731Y0166855D01*
X0027653Y0166682D01*
X0027570Y0166510D01*
X0027484Y0166341D01*
X0027394Y0166173D01*
X0027299Y0166008D01*
X0027201Y0165845D01*
X0027098Y0165685D01*
X0026992Y0165527D01*
X0026882Y0165372D01*
X0026769Y0165219D01*
X0026651Y0165069D01*
X0026530Y0164923D01*
X0026406Y0164779D01*
X0026278Y0164638D01*
X0026147Y0164500D01*
X0026012Y0164365D01*
X0025874Y0164234D01*
X0025733Y0164106D01*
X0025589Y0163982D01*
X0025443Y0163861D01*
X0025293Y0163743D01*
X0025140Y0163630D01*
X0024985Y0163520D01*
X0024827Y0163414D01*
X0024667Y0163311D01*
X0024504Y0163213D01*
X0024339Y0163118D01*
X0024171Y0163028D01*
X0024002Y0162942D01*
X0023830Y0162859D01*
X0023657Y0162781D01*
X0023481Y0162707D01*
X0023304Y0162638D01*
X0023125Y0162572D01*
X0022945Y0162511D01*
X0022764Y0162455D01*
X0022581Y0162403D01*
X0022396Y0162355D01*
X0022211Y0162312D01*
X0022025Y0162273D01*
X0021838Y0162238D01*
X0021650Y0162209D01*
X0021461Y0162183D01*
X0021272Y0162163D01*
X0021082Y0162147D01*
X0020892Y0162135D01*
X0020702Y0162128D01*
X0020512Y0162126D01*
X0020512Y0160157D01*
X0020512Y0162126D02*
X0020512Y0177874D01*
X0020512Y0179843D01*
X0020512Y0177874D02*
X0020702Y0177872D01*
X0020892Y0177865D01*
X0021082Y0177853D01*
X0021272Y0177837D01*
X0021461Y0177817D01*
X0021650Y0177791D01*
X0021838Y0177762D01*
X0022025Y0177727D01*
X0022211Y0177688D01*
X0022396Y0177645D01*
X0022581Y0177597D01*
X0022764Y0177545D01*
X0022945Y0177489D01*
X0023125Y0177428D01*
X0023304Y0177362D01*
X0023481Y0177293D01*
X0023657Y0177219D01*
X0023830Y0177141D01*
X0024002Y0177058D01*
X0024171Y0176972D01*
X0024339Y0176882D01*
X0024504Y0176787D01*
X0024667Y0176689D01*
X0024827Y0176586D01*
X0024985Y0176480D01*
X0025140Y0176370D01*
X0025293Y0176257D01*
X0025443Y0176139D01*
X0025589Y0176018D01*
X0025733Y0175894D01*
X0025874Y0175766D01*
X0026012Y0175635D01*
X0026147Y0175500D01*
X0026278Y0175362D01*
X0026406Y0175221D01*
X0026530Y0175077D01*
X0026651Y0174931D01*
X0026769Y0174781D01*
X0026882Y0174628D01*
X0026992Y0174473D01*
X0027098Y0174315D01*
X0027201Y0174155D01*
X0027299Y0173992D01*
X0027394Y0173827D01*
X0027484Y0173659D01*
X0027570Y0173490D01*
X0027653Y0173318D01*
X0027731Y0173145D01*
X0027805Y0172969D01*
X0027874Y0172792D01*
X0027940Y0172613D01*
X0028001Y0172433D01*
X0028057Y0172252D01*
X0028109Y0172069D01*
X0028157Y0171884D01*
X0028200Y0171699D01*
X0028239Y0171513D01*
X0028274Y0171326D01*
X0028303Y0171138D01*
X0028329Y0170949D01*
X0028349Y0170760D01*
X0028365Y0170570D01*
X0028377Y0170380D01*
X0028384Y0170190D01*
X0028386Y0170000D01*
X0009488Y0160157D02*
X0009488Y0179843D01*
D11*
X0011759Y0187700D02*
X0013294Y0187700D01*
X0014061Y0188467D01*
X0015596Y0187700D02*
X0018665Y0190769D01*
X0018665Y0191537D01*
X0017898Y0192304D01*
X0016363Y0192304D01*
X0015596Y0191537D01*
X0014061Y0191537D02*
X0013294Y0192304D01*
X0011759Y0192304D01*
X0010992Y0191537D01*
X0010992Y0188467D01*
X0011759Y0187700D01*
X0015596Y0187700D02*
X0018665Y0187700D01*
X0050200Y0159804D02*
X0052502Y0159804D01*
X0053269Y0159037D01*
X0053269Y0157502D01*
X0052502Y0156735D01*
X0050200Y0156735D01*
X0051735Y0156735D02*
X0053269Y0155200D01*
X0054804Y0155967D02*
X0055571Y0155200D01*
X0057106Y0155200D01*
X0057873Y0155967D01*
X0057873Y0156735D01*
X0057106Y0157502D01*
X0054804Y0157502D01*
X0054804Y0155967D01*
X0054804Y0157502D02*
X0056339Y0159037D01*
X0057873Y0159804D01*
X0050200Y0159804D02*
X0050200Y0155200D01*
X0031691Y0155710D02*
X0031691Y0156478D01*
X0030923Y0157245D01*
X0029389Y0157245D01*
X0028621Y0156478D01*
X0027087Y0156478D02*
X0026319Y0157245D01*
X0024785Y0157245D01*
X0024017Y0156478D01*
X0024017Y0153408D01*
X0024785Y0152641D01*
X0026319Y0152641D01*
X0027087Y0153408D01*
X0028621Y0152641D02*
X0031691Y0155710D01*
X0031691Y0152641D02*
X0028621Y0152641D01*
X0022483Y0152641D02*
X0020948Y0152641D01*
X0021715Y0152641D02*
X0021715Y0157245D01*
X0020948Y0157245D02*
X0022483Y0157245D01*
X0052700Y0180200D02*
X0052700Y0184804D01*
X0055002Y0184804D01*
X0055769Y0184037D01*
X0055769Y0182502D01*
X0055002Y0181735D01*
X0052700Y0181735D01*
X0054235Y0181735D02*
X0055769Y0180200D01*
X0057304Y0182502D02*
X0060373Y0182502D01*
X0059606Y0180200D02*
X0059606Y0184804D01*
X0057304Y0182502D01*
X0063492Y0187700D02*
X0063492Y0192304D01*
X0065794Y0192304D01*
X0066561Y0191537D01*
X0066561Y0190002D01*
X0065794Y0189235D01*
X0063492Y0189235D01*
X0065027Y0189235D02*
X0066561Y0187700D01*
X0068096Y0187700D02*
X0068096Y0188467D01*
X0071165Y0191537D01*
X0071165Y0192304D01*
X0068096Y0192304D01*
X0100992Y0186537D02*
X0100992Y0183467D01*
X0101759Y0182700D01*
X0103294Y0182700D01*
X0104061Y0183467D01*
X0105596Y0185002D02*
X0108665Y0185002D01*
X0107898Y0182700D02*
X0107898Y0187304D01*
X0105596Y0185002D01*
X0104061Y0186537D02*
X0103294Y0187304D01*
X0101759Y0187304D01*
X0100992Y0186537D01*
X0115992Y0159804D02*
X0118294Y0159804D01*
X0119061Y0159037D01*
X0119061Y0157502D01*
X0118294Y0156735D01*
X0115992Y0156735D01*
X0117527Y0156735D02*
X0119061Y0155200D01*
X0120596Y0155200D02*
X0123665Y0155200D01*
X0122131Y0155200D02*
X0122131Y0159804D01*
X0120596Y0158269D01*
X0115992Y0159804D02*
X0115992Y0155200D01*
X0133492Y0119804D02*
X0135794Y0119804D01*
X0136561Y0119037D01*
X0136561Y0117502D01*
X0135794Y0116735D01*
X0133492Y0116735D01*
X0135027Y0116735D02*
X0136561Y0115200D01*
X0138096Y0115200D02*
X0141165Y0118269D01*
X0141165Y0119037D01*
X0140398Y0119804D01*
X0138863Y0119804D01*
X0138096Y0119037D01*
X0138096Y0115200D02*
X0141165Y0115200D01*
X0133492Y0115200D02*
X0133492Y0119804D01*
X0122898Y0099804D02*
X0123665Y0099037D01*
X0123665Y0098269D01*
X0122898Y0097502D01*
X0123665Y0096735D01*
X0123665Y0095967D01*
X0122898Y0095200D01*
X0121363Y0095200D01*
X0120596Y0095967D01*
X0119061Y0095200D02*
X0117527Y0096735D01*
X0118294Y0096735D02*
X0115992Y0096735D01*
X0115992Y0095200D02*
X0115992Y0099804D01*
X0118294Y0099804D01*
X0119061Y0099037D01*
X0119061Y0097502D01*
X0118294Y0096735D01*
X0120596Y0099037D02*
X0121363Y0099804D01*
X0122898Y0099804D01*
X0122898Y0097502D02*
X0122131Y0097502D01*
X0112300Y0085373D02*
X0112300Y0082304D01*
X0112300Y0083839D02*
X0107696Y0083839D01*
X0109231Y0082304D01*
X0108463Y0080769D02*
X0107696Y0080002D01*
X0107696Y0078467D01*
X0108463Y0077700D01*
X0111533Y0077700D01*
X0112300Y0078467D01*
X0112300Y0080002D01*
X0111533Y0080769D01*
X0068665Y0074037D02*
X0068665Y0073269D01*
X0067898Y0072502D01*
X0068665Y0071735D01*
X0068665Y0070967D01*
X0067898Y0070200D01*
X0066363Y0070200D01*
X0065596Y0070967D01*
X0064061Y0070967D02*
X0063294Y0070200D01*
X0061759Y0070200D01*
X0060992Y0070967D01*
X0060992Y0074037D01*
X0061759Y0074804D01*
X0063294Y0074804D01*
X0064061Y0074037D01*
X0065596Y0074037D02*
X0066363Y0074804D01*
X0067898Y0074804D01*
X0068665Y0074037D01*
X0067898Y0072502D02*
X0067131Y0072502D01*
X0057898Y0095200D02*
X0056363Y0095200D01*
X0055596Y0095967D01*
X0054061Y0095967D02*
X0053294Y0095200D01*
X0051759Y0095200D01*
X0050992Y0095967D01*
X0050992Y0099037D01*
X0051759Y0099804D01*
X0053294Y0099804D01*
X0054061Y0099037D01*
X0055596Y0099804D02*
X0055596Y0097502D01*
X0057131Y0098269D01*
X0057898Y0098269D01*
X0058665Y0097502D01*
X0058665Y0095967D01*
X0057898Y0095200D01*
X0058665Y0099804D02*
X0055596Y0099804D01*
X0055769Y0120200D02*
X0054235Y0121735D01*
X0055002Y0121735D02*
X0052700Y0121735D01*
X0052700Y0120200D02*
X0052700Y0124804D01*
X0055002Y0124804D01*
X0055769Y0124037D01*
X0055769Y0122502D01*
X0055002Y0121735D01*
X0057304Y0122502D02*
X0058839Y0123269D01*
X0059606Y0123269D01*
X0060373Y0122502D01*
X0060373Y0120967D01*
X0059606Y0120200D01*
X0058071Y0120200D01*
X0057304Y0120967D01*
X0057304Y0122502D02*
X0057304Y0124804D01*
X0060373Y0124804D01*
X0226388Y0084804D02*
X0226388Y0080200D01*
X0229457Y0080200D02*
X0229457Y0084804D01*
X0227923Y0083269D01*
X0226388Y0084804D01*
X0230992Y0084037D02*
X0230992Y0080967D01*
X0231759Y0080200D01*
X0233294Y0080200D01*
X0234061Y0080967D01*
X0234061Y0084037D01*
X0233294Y0084804D01*
X0231759Y0084804D01*
X0230992Y0084037D01*
X0235596Y0084804D02*
X0238665Y0084804D01*
X0237131Y0084804D02*
X0237131Y0080200D01*
X0237898Y0135200D02*
X0236363Y0135200D01*
X0235596Y0135967D01*
X0237131Y0137502D02*
X0237898Y0137502D01*
X0238665Y0136735D01*
X0238665Y0135967D01*
X0237898Y0135200D01*
X0237898Y0137502D02*
X0238665Y0138269D01*
X0238665Y0139037D01*
X0237898Y0139804D01*
X0236363Y0139804D01*
X0235596Y0139037D01*
X0234061Y0139804D02*
X0232527Y0139804D01*
X0233294Y0139804D02*
X0233294Y0135967D01*
X0232527Y0135200D01*
X0231759Y0135200D01*
X0230992Y0135967D01*
X0232527Y0155200D02*
X0234061Y0155200D01*
X0233294Y0155200D02*
X0233294Y0159804D01*
X0232527Y0159804D02*
X0234061Y0159804D01*
X0235596Y0159804D02*
X0238665Y0155200D01*
X0238665Y0159804D01*
X0235596Y0159804D02*
X0235596Y0155200D01*
X0230992Y0157502D02*
X0230225Y0156735D01*
X0227923Y0156735D01*
X0227923Y0155200D02*
X0227923Y0159804D01*
X0230225Y0159804D01*
X0230992Y0159037D01*
X0230992Y0157502D01*
X0231759Y0190200D02*
X0232527Y0190200D01*
X0233294Y0190967D01*
X0233294Y0194804D01*
X0232527Y0194804D02*
X0234061Y0194804D01*
X0235596Y0193269D02*
X0237131Y0194804D01*
X0237131Y0190200D01*
X0238665Y0190200D02*
X0235596Y0190200D01*
X0231759Y0190200D02*
X0230992Y0190967D01*
D12*
X0230453Y0201693D02*
X0035453Y0201693D01*
X0032953Y0204193D01*
X0032953Y0219193D01*
X0035453Y0221693D01*
X0230453Y0221693D01*
X0232953Y0219193D01*
X0232953Y0204193D01*
X0230453Y0201693D01*
X0220000Y0173000D02*
X0210000Y0173000D01*
X0210000Y0157000D01*
X0220000Y0157000D01*
X0220000Y0173000D01*
X0215000Y0167500D02*
X0215000Y0165000D01*
X0212500Y0165000D01*
X0215000Y0165000D02*
X0217500Y0165000D01*
X0215000Y0165000D02*
X0217500Y0161000D01*
X0212500Y0161000D01*
X0215000Y0165000D01*
X0215000Y0159000D01*
X0200000Y0157000D02*
X0200000Y0173000D01*
X0190000Y0173000D01*
X0190000Y0157000D01*
X0200000Y0157000D01*
X0197500Y0161000D02*
X0195000Y0165000D01*
X0192500Y0165000D01*
X0195000Y0165000D02*
X0195000Y0167500D01*
X0195000Y0165000D02*
X0197500Y0165000D01*
X0195000Y0165000D02*
X0195000Y0159000D01*
X0192500Y0161000D02*
X0195000Y0165000D01*
X0197500Y0161000D02*
X0192500Y0161000D01*
X0180000Y0157000D02*
X0180000Y0173000D01*
X0170000Y0173000D01*
X0170000Y0157000D01*
X0180000Y0157000D01*
X0177500Y0161000D02*
X0175000Y0165000D01*
X0172500Y0165000D01*
X0175000Y0165000D02*
X0175000Y0167500D01*
X0175000Y0165000D02*
X0177500Y0165000D01*
X0175000Y0165000D02*
X0175000Y0159000D01*
X0172500Y0161000D02*
X0175000Y0165000D01*
X0177500Y0161000D02*
X0172500Y0161000D01*
X0160000Y0157000D02*
X0160000Y0173000D01*
X0150000Y0173000D01*
X0150000Y0157000D01*
X0160000Y0157000D01*
X0157500Y0161000D02*
X0155000Y0165000D01*
X0152500Y0165000D01*
X0155000Y0165000D02*
X0155000Y0167500D01*
X0155000Y0165000D02*
X0157500Y0165000D01*
X0155000Y0165000D02*
X0155000Y0159000D01*
X0152500Y0161000D02*
X0155000Y0165000D01*
X0157500Y0161000D02*
X0152500Y0161000D01*
X0150000Y0118000D02*
X0160000Y0118000D01*
X0160000Y0102000D01*
X0150000Y0102000D01*
X0150000Y0118000D01*
X0155000Y0112500D02*
X0155000Y0110000D01*
X0152500Y0110000D01*
X0155000Y0110000D02*
X0157500Y0110000D01*
X0155000Y0110000D02*
X0157500Y0106000D01*
X0152500Y0106000D01*
X0155000Y0110000D01*
X0155000Y0104000D01*
X0170000Y0102000D02*
X0180000Y0102000D01*
X0180000Y0118000D01*
X0170000Y0118000D01*
X0170000Y0102000D01*
X0172500Y0106000D02*
X0175000Y0110000D01*
X0172500Y0110000D01*
X0175000Y0110000D02*
X0175000Y0112500D01*
X0175000Y0110000D02*
X0177500Y0110000D01*
X0175000Y0110000D02*
X0177500Y0106000D01*
X0172500Y0106000D01*
X0175000Y0104000D02*
X0175000Y0110000D01*
X0190000Y0102000D02*
X0200000Y0102000D01*
X0200000Y0118000D01*
X0190000Y0118000D01*
X0190000Y0102000D01*
X0192500Y0106000D02*
X0195000Y0110000D01*
X0192500Y0110000D01*
X0195000Y0110000D02*
X0195000Y0112500D01*
X0195000Y0110000D02*
X0197500Y0110000D01*
X0195000Y0110000D02*
X0197500Y0106000D01*
X0192500Y0106000D01*
X0195000Y0104000D02*
X0195000Y0110000D01*
X0210000Y0102000D02*
X0220000Y0102000D01*
X0220000Y0118000D01*
X0210000Y0118000D01*
X0210000Y0102000D01*
X0212500Y0106000D02*
X0215000Y0110000D01*
X0212500Y0110000D01*
X0215000Y0110000D02*
X0215000Y0112500D01*
X0215000Y0110000D02*
X0217500Y0110000D01*
X0215000Y0110000D02*
X0217500Y0106000D01*
X0212500Y0106000D01*
X0215000Y0104000D02*
X0215000Y0110000D01*
X0099000Y0100000D02*
X0091500Y0100000D01*
X0091498Y0100126D01*
X0091492Y0100251D01*
X0091482Y0100376D01*
X0091468Y0100501D01*
X0091451Y0100626D01*
X0091429Y0100750D01*
X0091404Y0100873D01*
X0091374Y0100995D01*
X0091341Y0101116D01*
X0091304Y0101236D01*
X0091264Y0101355D01*
X0091219Y0101472D01*
X0091171Y0101589D01*
X0091119Y0101703D01*
X0091064Y0101816D01*
X0091005Y0101927D01*
X0090943Y0102036D01*
X0090877Y0102143D01*
X0090808Y0102248D01*
X0090736Y0102351D01*
X0090661Y0102452D01*
X0090582Y0102550D01*
X0090500Y0102645D01*
X0090416Y0102738D01*
X0090328Y0102828D01*
X0090238Y0102916D01*
X0090145Y0103000D01*
X0090050Y0103082D01*
X0089952Y0103161D01*
X0089851Y0103236D01*
X0089748Y0103308D01*
X0089643Y0103377D01*
X0089536Y0103443D01*
X0089427Y0103505D01*
X0089316Y0103564D01*
X0089203Y0103619D01*
X0089089Y0103671D01*
X0088972Y0103719D01*
X0088855Y0103764D01*
X0088736Y0103804D01*
X0088616Y0103841D01*
X0088495Y0103874D01*
X0088373Y0103904D01*
X0088250Y0103929D01*
X0088126Y0103951D01*
X0088001Y0103968D01*
X0087876Y0103982D01*
X0087751Y0103992D01*
X0087626Y0103998D01*
X0087500Y0104000D01*
X0087374Y0103998D01*
X0087249Y0103992D01*
X0087124Y0103982D01*
X0086999Y0103968D01*
X0086874Y0103951D01*
X0086750Y0103929D01*
X0086627Y0103904D01*
X0086505Y0103874D01*
X0086384Y0103841D01*
X0086264Y0103804D01*
X0086145Y0103764D01*
X0086028Y0103719D01*
X0085911Y0103671D01*
X0085797Y0103619D01*
X0085684Y0103564D01*
X0085573Y0103505D01*
X0085464Y0103443D01*
X0085357Y0103377D01*
X0085252Y0103308D01*
X0085149Y0103236D01*
X0085048Y0103161D01*
X0084950Y0103082D01*
X0084855Y0103000D01*
X0084762Y0102916D01*
X0084672Y0102828D01*
X0084584Y0102738D01*
X0084500Y0102645D01*
X0084418Y0102550D01*
X0084339Y0102452D01*
X0084264Y0102351D01*
X0084192Y0102248D01*
X0084123Y0102143D01*
X0084057Y0102036D01*
X0083995Y0101927D01*
X0083936Y0101816D01*
X0083881Y0101703D01*
X0083829Y0101589D01*
X0083781Y0101472D01*
X0083736Y0101355D01*
X0083696Y0101236D01*
X0083659Y0101116D01*
X0083626Y0100995D01*
X0083596Y0100873D01*
X0083571Y0100750D01*
X0083549Y0100626D01*
X0083532Y0100501D01*
X0083518Y0100376D01*
X0083508Y0100251D01*
X0083502Y0100126D01*
X0083500Y0100000D01*
X0076000Y0100000D01*
X0076000Y0180000D01*
X0099000Y0180000D01*
X0099000Y0100000D01*
D13*
X0155000Y0115500D03*
X0175000Y0115500D03*
X0195000Y0115500D03*
X0215000Y0115500D03*
X0215000Y0170500D03*
X0195000Y0170500D03*
X0175000Y0170500D03*
X0155000Y0170500D03*
D14*
X0155000Y0176750D03*
X0175000Y0176750D03*
X0195000Y0176750D03*
X0215000Y0176750D03*
X0215000Y0153250D03*
X0195000Y0153250D03*
X0175000Y0153250D03*
X0155000Y0153250D03*
X0155000Y0121750D03*
X0175000Y0121750D03*
X0195000Y0121750D03*
X0215000Y0121750D03*
X0215000Y0098250D03*
X0195000Y0098250D03*
X0175000Y0098250D03*
X0155000Y0098250D03*
D15*
X0249094Y0005000D02*
X0016811Y0005000D01*
X0016526Y0005003D01*
X0016240Y0005014D01*
X0015955Y0005031D01*
X0015671Y0005055D01*
X0015387Y0005086D01*
X0015104Y0005124D01*
X0014823Y0005169D01*
X0014542Y0005220D01*
X0014262Y0005278D01*
X0013984Y0005343D01*
X0013708Y0005415D01*
X0013434Y0005493D01*
X0013161Y0005578D01*
X0012891Y0005670D01*
X0012623Y0005768D01*
X0012357Y0005872D01*
X0012094Y0005983D01*
X0011834Y0006100D01*
X0011576Y0006223D01*
X0011322Y0006353D01*
X0011071Y0006489D01*
X0010823Y0006630D01*
X0010579Y0006778D01*
X0010338Y0006931D01*
X0010102Y0007091D01*
X0009869Y0007256D01*
X0009640Y0007426D01*
X0009415Y0007602D01*
X0009195Y0007784D01*
X0008979Y0007970D01*
X0008768Y0008162D01*
X0008561Y0008359D01*
X0008359Y0008561D01*
X0008162Y0008768D01*
X0007970Y0008979D01*
X0007784Y0009195D01*
X0007602Y0009415D01*
X0007426Y0009640D01*
X0007256Y0009869D01*
X0007091Y0010102D01*
X0006931Y0010338D01*
X0006778Y0010579D01*
X0006630Y0010823D01*
X0006489Y0011071D01*
X0006353Y0011322D01*
X0006223Y0011576D01*
X0006100Y0011834D01*
X0005983Y0012094D01*
X0005872Y0012357D01*
X0005768Y0012623D01*
X0005670Y0012891D01*
X0005578Y0013161D01*
X0005493Y0013434D01*
X0005415Y0013708D01*
X0005343Y0013984D01*
X0005278Y0014262D01*
X0005220Y0014542D01*
X0005169Y0014823D01*
X0005124Y0015104D01*
X0005086Y0015387D01*
X0005055Y0015671D01*
X0005031Y0015955D01*
X0005014Y0016240D01*
X0005003Y0016526D01*
X0005000Y0016811D01*
X0005000Y0077835D01*
X0005002Y0077959D01*
X0005008Y0078082D01*
X0005017Y0078206D01*
X0005031Y0078328D01*
X0005048Y0078451D01*
X0005070Y0078573D01*
X0005095Y0078694D01*
X0005124Y0078814D01*
X0005156Y0078933D01*
X0005193Y0079052D01*
X0005233Y0079169D01*
X0005276Y0079284D01*
X0005324Y0079399D01*
X0005375Y0079511D01*
X0005429Y0079622D01*
X0005487Y0079732D01*
X0005548Y0079839D01*
X0005613Y0079945D01*
X0005681Y0080048D01*
X0005752Y0080149D01*
X0005826Y0080248D01*
X0005903Y0080345D01*
X0005984Y0080439D01*
X0006067Y0080530D01*
X0006153Y0080619D01*
X0006242Y0080705D01*
X0006333Y0080788D01*
X0006427Y0080869D01*
X0006524Y0080946D01*
X0006623Y0081020D01*
X0006724Y0081091D01*
X0006827Y0081159D01*
X0006933Y0081224D01*
X0007040Y0081285D01*
X0007150Y0081343D01*
X0007261Y0081397D01*
X0007373Y0081448D01*
X0007488Y0081496D01*
X0007603Y0081539D01*
X0007720Y0081579D01*
X0007839Y0081616D01*
X0007958Y0081648D01*
X0008078Y0081677D01*
X0008199Y0081702D01*
X0008321Y0081724D01*
X0008444Y0081741D01*
X0008566Y0081755D01*
X0008690Y0081764D01*
X0008813Y0081770D01*
X0008937Y0081772D01*
X0020748Y0081772D01*
X0020872Y0081774D01*
X0020995Y0081780D01*
X0021119Y0081789D01*
X0021241Y0081803D01*
X0021364Y0081820D01*
X0021486Y0081842D01*
X0021607Y0081867D01*
X0021727Y0081896D01*
X0021846Y0081928D01*
X0021965Y0081965D01*
X0022082Y0082005D01*
X0022197Y0082048D01*
X0022312Y0082096D01*
X0022424Y0082147D01*
X0022535Y0082201D01*
X0022645Y0082259D01*
X0022752Y0082320D01*
X0022858Y0082385D01*
X0022961Y0082453D01*
X0023062Y0082524D01*
X0023161Y0082598D01*
X0023258Y0082675D01*
X0023352Y0082756D01*
X0023443Y0082839D01*
X0023532Y0082925D01*
X0023618Y0083014D01*
X0023701Y0083105D01*
X0023782Y0083199D01*
X0023859Y0083296D01*
X0023933Y0083395D01*
X0024004Y0083496D01*
X0024072Y0083599D01*
X0024137Y0083705D01*
X0024198Y0083812D01*
X0024256Y0083922D01*
X0024310Y0084033D01*
X0024361Y0084145D01*
X0024409Y0084260D01*
X0024452Y0084375D01*
X0024492Y0084492D01*
X0024529Y0084611D01*
X0024561Y0084730D01*
X0024590Y0084850D01*
X0024615Y0084971D01*
X0024637Y0085093D01*
X0024654Y0085216D01*
X0024668Y0085338D01*
X0024677Y0085462D01*
X0024683Y0085585D01*
X0024685Y0085709D01*
X0024685Y0144764D01*
X0024683Y0144888D01*
X0024677Y0145011D01*
X0024668Y0145135D01*
X0024654Y0145257D01*
X0024637Y0145380D01*
X0024615Y0145502D01*
X0024590Y0145623D01*
X0024561Y0145743D01*
X0024529Y0145862D01*
X0024492Y0145981D01*
X0024452Y0146098D01*
X0024409Y0146213D01*
X0024361Y0146328D01*
X0024310Y0146440D01*
X0024256Y0146551D01*
X0024198Y0146661D01*
X0024137Y0146768D01*
X0024072Y0146874D01*
X0024004Y0146977D01*
X0023933Y0147078D01*
X0023859Y0147177D01*
X0023782Y0147274D01*
X0023701Y0147368D01*
X0023618Y0147459D01*
X0023532Y0147548D01*
X0023443Y0147634D01*
X0023352Y0147717D01*
X0023258Y0147798D01*
X0023161Y0147875D01*
X0023062Y0147949D01*
X0022961Y0148020D01*
X0022858Y0148088D01*
X0022752Y0148153D01*
X0022645Y0148214D01*
X0022535Y0148272D01*
X0022424Y0148326D01*
X0022312Y0148377D01*
X0022197Y0148425D01*
X0022082Y0148468D01*
X0021965Y0148508D01*
X0021846Y0148545D01*
X0021727Y0148577D01*
X0021607Y0148606D01*
X0021486Y0148631D01*
X0021364Y0148653D01*
X0021241Y0148670D01*
X0021119Y0148684D01*
X0020995Y0148693D01*
X0020872Y0148699D01*
X0020748Y0148701D01*
X0008937Y0148701D01*
X0008813Y0148703D01*
X0008690Y0148709D01*
X0008566Y0148718D01*
X0008444Y0148732D01*
X0008321Y0148749D01*
X0008199Y0148771D01*
X0008078Y0148796D01*
X0007958Y0148825D01*
X0007839Y0148857D01*
X0007720Y0148894D01*
X0007603Y0148934D01*
X0007488Y0148977D01*
X0007373Y0149025D01*
X0007261Y0149076D01*
X0007150Y0149130D01*
X0007040Y0149188D01*
X0006933Y0149249D01*
X0006827Y0149314D01*
X0006724Y0149382D01*
X0006623Y0149453D01*
X0006524Y0149527D01*
X0006427Y0149604D01*
X0006333Y0149685D01*
X0006242Y0149768D01*
X0006153Y0149854D01*
X0006067Y0149943D01*
X0005984Y0150034D01*
X0005903Y0150128D01*
X0005826Y0150225D01*
X0005752Y0150324D01*
X0005681Y0150425D01*
X0005613Y0150528D01*
X0005548Y0150634D01*
X0005487Y0150741D01*
X0005429Y0150851D01*
X0005375Y0150962D01*
X0005324Y0151074D01*
X0005276Y0151189D01*
X0005233Y0151304D01*
X0005193Y0151421D01*
X0005156Y0151540D01*
X0005124Y0151659D01*
X0005095Y0151779D01*
X0005070Y0151900D01*
X0005048Y0152022D01*
X0005031Y0152145D01*
X0005017Y0152267D01*
X0005008Y0152391D01*
X0005002Y0152514D01*
X0005000Y0152638D01*
X0005000Y0213661D01*
X0005003Y0213946D01*
X0005014Y0214232D01*
X0005031Y0214517D01*
X0005055Y0214801D01*
X0005086Y0215085D01*
X0005124Y0215368D01*
X0005169Y0215649D01*
X0005220Y0215930D01*
X0005278Y0216210D01*
X0005343Y0216488D01*
X0005415Y0216764D01*
X0005493Y0217038D01*
X0005578Y0217311D01*
X0005670Y0217581D01*
X0005768Y0217849D01*
X0005872Y0218115D01*
X0005983Y0218378D01*
X0006100Y0218638D01*
X0006223Y0218896D01*
X0006353Y0219150D01*
X0006489Y0219401D01*
X0006630Y0219649D01*
X0006778Y0219893D01*
X0006931Y0220134D01*
X0007091Y0220370D01*
X0007256Y0220603D01*
X0007426Y0220832D01*
X0007602Y0221057D01*
X0007784Y0221277D01*
X0007970Y0221493D01*
X0008162Y0221704D01*
X0008359Y0221911D01*
X0008561Y0222113D01*
X0008768Y0222310D01*
X0008979Y0222502D01*
X0009195Y0222688D01*
X0009415Y0222870D01*
X0009640Y0223046D01*
X0009869Y0223216D01*
X0010102Y0223381D01*
X0010338Y0223541D01*
X0010579Y0223694D01*
X0010823Y0223842D01*
X0011071Y0223983D01*
X0011322Y0224119D01*
X0011576Y0224249D01*
X0011834Y0224372D01*
X0012094Y0224489D01*
X0012357Y0224600D01*
X0012623Y0224704D01*
X0012891Y0224802D01*
X0013161Y0224894D01*
X0013434Y0224979D01*
X0013708Y0225057D01*
X0013984Y0225129D01*
X0014262Y0225194D01*
X0014542Y0225252D01*
X0014823Y0225303D01*
X0015104Y0225348D01*
X0015387Y0225386D01*
X0015671Y0225417D01*
X0015955Y0225441D01*
X0016240Y0225458D01*
X0016526Y0225469D01*
X0016811Y0225472D01*
X0249094Y0225472D01*
X0249379Y0225469D01*
X0249665Y0225458D01*
X0249950Y0225441D01*
X0250234Y0225417D01*
X0250518Y0225386D01*
X0250801Y0225348D01*
X0251082Y0225303D01*
X0251363Y0225252D01*
X0251643Y0225194D01*
X0251921Y0225129D01*
X0252197Y0225057D01*
X0252471Y0224979D01*
X0252744Y0224894D01*
X0253014Y0224802D01*
X0253282Y0224704D01*
X0253548Y0224600D01*
X0253811Y0224489D01*
X0254071Y0224372D01*
X0254329Y0224249D01*
X0254583Y0224119D01*
X0254834Y0223983D01*
X0255082Y0223842D01*
X0255326Y0223694D01*
X0255567Y0223541D01*
X0255803Y0223381D01*
X0256036Y0223216D01*
X0256265Y0223046D01*
X0256490Y0222870D01*
X0256710Y0222688D01*
X0256926Y0222502D01*
X0257137Y0222310D01*
X0257344Y0222113D01*
X0257546Y0221911D01*
X0257743Y0221704D01*
X0257935Y0221493D01*
X0258121Y0221277D01*
X0258303Y0221057D01*
X0258479Y0220832D01*
X0258649Y0220603D01*
X0258814Y0220370D01*
X0258974Y0220134D01*
X0259127Y0219893D01*
X0259275Y0219649D01*
X0259416Y0219401D01*
X0259552Y0219150D01*
X0259682Y0218896D01*
X0259805Y0218638D01*
X0259922Y0218378D01*
X0260033Y0218115D01*
X0260137Y0217849D01*
X0260235Y0217581D01*
X0260327Y0217311D01*
X0260412Y0217038D01*
X0260490Y0216764D01*
X0260562Y0216488D01*
X0260627Y0216210D01*
X0260685Y0215930D01*
X0260736Y0215649D01*
X0260781Y0215368D01*
X0260819Y0215085D01*
X0260850Y0214801D01*
X0260874Y0214517D01*
X0260891Y0214232D01*
X0260902Y0213946D01*
X0260905Y0213661D01*
X0260906Y0213661D02*
X0260906Y0016811D01*
X0260905Y0016811D02*
X0260902Y0016526D01*
X0260891Y0016240D01*
X0260874Y0015955D01*
X0260850Y0015671D01*
X0260819Y0015387D01*
X0260781Y0015104D01*
X0260736Y0014823D01*
X0260685Y0014542D01*
X0260627Y0014262D01*
X0260562Y0013984D01*
X0260490Y0013708D01*
X0260412Y0013434D01*
X0260327Y0013161D01*
X0260235Y0012891D01*
X0260137Y0012623D01*
X0260033Y0012357D01*
X0259922Y0012094D01*
X0259805Y0011834D01*
X0259682Y0011576D01*
X0259552Y0011322D01*
X0259416Y0011071D01*
X0259275Y0010823D01*
X0259127Y0010579D01*
X0258974Y0010338D01*
X0258814Y0010102D01*
X0258649Y0009869D01*
X0258479Y0009640D01*
X0258303Y0009415D01*
X0258121Y0009195D01*
X0257935Y0008979D01*
X0257743Y0008768D01*
X0257546Y0008561D01*
X0257344Y0008359D01*
X0257137Y0008162D01*
X0256926Y0007970D01*
X0256710Y0007784D01*
X0256490Y0007602D01*
X0256265Y0007426D01*
X0256036Y0007256D01*
X0255803Y0007091D01*
X0255567Y0006931D01*
X0255326Y0006778D01*
X0255082Y0006630D01*
X0254834Y0006489D01*
X0254583Y0006353D01*
X0254329Y0006223D01*
X0254071Y0006100D01*
X0253811Y0005983D01*
X0253548Y0005872D01*
X0253282Y0005768D01*
X0253014Y0005670D01*
X0252744Y0005578D01*
X0252471Y0005493D01*
X0252197Y0005415D01*
X0251921Y0005343D01*
X0251643Y0005278D01*
X0251363Y0005220D01*
X0251082Y0005169D01*
X0250801Y0005124D01*
X0250518Y0005086D01*
X0250234Y0005055D01*
X0249950Y0005031D01*
X0249665Y0005014D01*
X0249379Y0005003D01*
X0249094Y0005000D01*
X0241713Y0018780D02*
X0241715Y0018927D01*
X0241721Y0019073D01*
X0241731Y0019219D01*
X0241745Y0019365D01*
X0241763Y0019511D01*
X0241784Y0019656D01*
X0241810Y0019800D01*
X0241840Y0019944D01*
X0241873Y0020086D01*
X0241910Y0020228D01*
X0241951Y0020369D01*
X0241996Y0020508D01*
X0242045Y0020647D01*
X0242097Y0020784D01*
X0242154Y0020919D01*
X0242213Y0021053D01*
X0242277Y0021185D01*
X0242344Y0021315D01*
X0242414Y0021444D01*
X0242488Y0021571D01*
X0242565Y0021695D01*
X0242646Y0021818D01*
X0242730Y0021938D01*
X0242817Y0022056D01*
X0242907Y0022171D01*
X0243000Y0022284D01*
X0243097Y0022395D01*
X0243196Y0022503D01*
X0243298Y0022608D01*
X0243403Y0022710D01*
X0243511Y0022809D01*
X0243622Y0022906D01*
X0243735Y0022999D01*
X0243850Y0023089D01*
X0243968Y0023176D01*
X0244088Y0023260D01*
X0244211Y0023341D01*
X0244335Y0023418D01*
X0244462Y0023492D01*
X0244591Y0023562D01*
X0244721Y0023629D01*
X0244853Y0023693D01*
X0244987Y0023752D01*
X0245122Y0023809D01*
X0245259Y0023861D01*
X0245398Y0023910D01*
X0245537Y0023955D01*
X0245678Y0023996D01*
X0245820Y0024033D01*
X0245962Y0024066D01*
X0246106Y0024096D01*
X0246250Y0024122D01*
X0246395Y0024143D01*
X0246541Y0024161D01*
X0246687Y0024175D01*
X0246833Y0024185D01*
X0246979Y0024191D01*
X0247126Y0024193D01*
X0247273Y0024191D01*
X0247419Y0024185D01*
X0247565Y0024175D01*
X0247711Y0024161D01*
X0247857Y0024143D01*
X0248002Y0024122D01*
X0248146Y0024096D01*
X0248290Y0024066D01*
X0248432Y0024033D01*
X0248574Y0023996D01*
X0248715Y0023955D01*
X0248854Y0023910D01*
X0248993Y0023861D01*
X0249130Y0023809D01*
X0249265Y0023752D01*
X0249399Y0023693D01*
X0249531Y0023629D01*
X0249661Y0023562D01*
X0249790Y0023492D01*
X0249917Y0023418D01*
X0250041Y0023341D01*
X0250164Y0023260D01*
X0250284Y0023176D01*
X0250402Y0023089D01*
X0250517Y0022999D01*
X0250630Y0022906D01*
X0250741Y0022809D01*
X0250849Y0022710D01*
X0250954Y0022608D01*
X0251056Y0022503D01*
X0251155Y0022395D01*
X0251252Y0022284D01*
X0251345Y0022171D01*
X0251435Y0022056D01*
X0251522Y0021938D01*
X0251606Y0021818D01*
X0251687Y0021695D01*
X0251764Y0021571D01*
X0251838Y0021444D01*
X0251908Y0021315D01*
X0251975Y0021185D01*
X0252039Y0021053D01*
X0252098Y0020919D01*
X0252155Y0020784D01*
X0252207Y0020647D01*
X0252256Y0020508D01*
X0252301Y0020369D01*
X0252342Y0020228D01*
X0252379Y0020086D01*
X0252412Y0019944D01*
X0252442Y0019800D01*
X0252468Y0019656D01*
X0252489Y0019511D01*
X0252507Y0019365D01*
X0252521Y0019219D01*
X0252531Y0019073D01*
X0252537Y0018927D01*
X0252539Y0018780D01*
X0252537Y0018633D01*
X0252531Y0018487D01*
X0252521Y0018341D01*
X0252507Y0018195D01*
X0252489Y0018049D01*
X0252468Y0017904D01*
X0252442Y0017760D01*
X0252412Y0017616D01*
X0252379Y0017474D01*
X0252342Y0017332D01*
X0252301Y0017191D01*
X0252256Y0017052D01*
X0252207Y0016913D01*
X0252155Y0016776D01*
X0252098Y0016641D01*
X0252039Y0016507D01*
X0251975Y0016375D01*
X0251908Y0016245D01*
X0251838Y0016116D01*
X0251764Y0015989D01*
X0251687Y0015865D01*
X0251606Y0015742D01*
X0251522Y0015622D01*
X0251435Y0015504D01*
X0251345Y0015389D01*
X0251252Y0015276D01*
X0251155Y0015165D01*
X0251056Y0015057D01*
X0250954Y0014952D01*
X0250849Y0014850D01*
X0250741Y0014751D01*
X0250630Y0014654D01*
X0250517Y0014561D01*
X0250402Y0014471D01*
X0250284Y0014384D01*
X0250164Y0014300D01*
X0250041Y0014219D01*
X0249917Y0014142D01*
X0249790Y0014068D01*
X0249661Y0013998D01*
X0249531Y0013931D01*
X0249399Y0013867D01*
X0249265Y0013808D01*
X0249130Y0013751D01*
X0248993Y0013699D01*
X0248854Y0013650D01*
X0248715Y0013605D01*
X0248574Y0013564D01*
X0248432Y0013527D01*
X0248290Y0013494D01*
X0248146Y0013464D01*
X0248002Y0013438D01*
X0247857Y0013417D01*
X0247711Y0013399D01*
X0247565Y0013385D01*
X0247419Y0013375D01*
X0247273Y0013369D01*
X0247126Y0013367D01*
X0246979Y0013369D01*
X0246833Y0013375D01*
X0246687Y0013385D01*
X0246541Y0013399D01*
X0246395Y0013417D01*
X0246250Y0013438D01*
X0246106Y0013464D01*
X0245962Y0013494D01*
X0245820Y0013527D01*
X0245678Y0013564D01*
X0245537Y0013605D01*
X0245398Y0013650D01*
X0245259Y0013699D01*
X0245122Y0013751D01*
X0244987Y0013808D01*
X0244853Y0013867D01*
X0244721Y0013931D01*
X0244591Y0013998D01*
X0244462Y0014068D01*
X0244335Y0014142D01*
X0244211Y0014219D01*
X0244088Y0014300D01*
X0243968Y0014384D01*
X0243850Y0014471D01*
X0243735Y0014561D01*
X0243622Y0014654D01*
X0243511Y0014751D01*
X0243403Y0014850D01*
X0243298Y0014952D01*
X0243196Y0015057D01*
X0243097Y0015165D01*
X0243000Y0015276D01*
X0242907Y0015389D01*
X0242817Y0015504D01*
X0242730Y0015622D01*
X0242646Y0015742D01*
X0242565Y0015865D01*
X0242488Y0015989D01*
X0242414Y0016116D01*
X0242344Y0016245D01*
X0242277Y0016375D01*
X0242213Y0016507D01*
X0242154Y0016641D01*
X0242097Y0016776D01*
X0242045Y0016913D01*
X0241996Y0017052D01*
X0241951Y0017191D01*
X0241910Y0017332D01*
X0241873Y0017474D01*
X0241840Y0017616D01*
X0241810Y0017760D01*
X0241784Y0017904D01*
X0241763Y0018049D01*
X0241745Y0018195D01*
X0241731Y0018341D01*
X0241721Y0018487D01*
X0241715Y0018633D01*
X0241713Y0018780D01*
X0186102Y0020748D02*
X0186102Y0079803D01*
X0182165Y0083740D02*
X0182041Y0083738D01*
X0181918Y0083732D01*
X0181794Y0083723D01*
X0181672Y0083709D01*
X0181549Y0083692D01*
X0181427Y0083670D01*
X0181306Y0083645D01*
X0181186Y0083616D01*
X0181067Y0083584D01*
X0180948Y0083547D01*
X0180831Y0083507D01*
X0180716Y0083464D01*
X0180601Y0083416D01*
X0180489Y0083365D01*
X0180378Y0083311D01*
X0180268Y0083253D01*
X0180161Y0083192D01*
X0180055Y0083127D01*
X0179952Y0083059D01*
X0179851Y0082988D01*
X0179752Y0082914D01*
X0179655Y0082837D01*
X0179561Y0082756D01*
X0179470Y0082673D01*
X0179381Y0082587D01*
X0179295Y0082498D01*
X0179212Y0082407D01*
X0179131Y0082313D01*
X0179054Y0082216D01*
X0178980Y0082117D01*
X0178909Y0082016D01*
X0178841Y0081913D01*
X0178776Y0081807D01*
X0178715Y0081700D01*
X0178657Y0081590D01*
X0178603Y0081479D01*
X0178552Y0081367D01*
X0178504Y0081252D01*
X0178461Y0081137D01*
X0178421Y0081020D01*
X0178384Y0080901D01*
X0178352Y0080782D01*
X0178323Y0080662D01*
X0178298Y0080541D01*
X0178276Y0080419D01*
X0178259Y0080296D01*
X0178245Y0080174D01*
X0178236Y0080050D01*
X0178230Y0079927D01*
X0178228Y0079803D01*
X0178228Y0020748D01*
X0182165Y0016811D02*
X0182289Y0016813D01*
X0182412Y0016819D01*
X0182536Y0016828D01*
X0182658Y0016842D01*
X0182781Y0016859D01*
X0182903Y0016881D01*
X0183024Y0016906D01*
X0183144Y0016935D01*
X0183263Y0016967D01*
X0183382Y0017004D01*
X0183499Y0017044D01*
X0183614Y0017087D01*
X0183729Y0017135D01*
X0183841Y0017186D01*
X0183952Y0017240D01*
X0184062Y0017298D01*
X0184169Y0017359D01*
X0184275Y0017424D01*
X0184378Y0017492D01*
X0184479Y0017563D01*
X0184578Y0017637D01*
X0184675Y0017714D01*
X0184769Y0017795D01*
X0184860Y0017878D01*
X0184949Y0017964D01*
X0185035Y0018053D01*
X0185118Y0018144D01*
X0185199Y0018238D01*
X0185276Y0018335D01*
X0185350Y0018434D01*
X0185421Y0018535D01*
X0185489Y0018638D01*
X0185554Y0018744D01*
X0185615Y0018851D01*
X0185673Y0018961D01*
X0185727Y0019072D01*
X0185778Y0019184D01*
X0185826Y0019299D01*
X0185869Y0019414D01*
X0185909Y0019531D01*
X0185946Y0019650D01*
X0185978Y0019769D01*
X0186007Y0019889D01*
X0186032Y0020010D01*
X0186054Y0020132D01*
X0186071Y0020255D01*
X0186085Y0020377D01*
X0186094Y0020501D01*
X0186100Y0020624D01*
X0186102Y0020748D01*
X0182165Y0016811D02*
X0182041Y0016813D01*
X0181918Y0016819D01*
X0181794Y0016828D01*
X0181672Y0016842D01*
X0181549Y0016859D01*
X0181427Y0016881D01*
X0181306Y0016906D01*
X0181186Y0016935D01*
X0181067Y0016967D01*
X0180948Y0017004D01*
X0180831Y0017044D01*
X0180716Y0017087D01*
X0180601Y0017135D01*
X0180489Y0017186D01*
X0180378Y0017240D01*
X0180268Y0017298D01*
X0180161Y0017359D01*
X0180055Y0017424D01*
X0179952Y0017492D01*
X0179851Y0017563D01*
X0179752Y0017637D01*
X0179655Y0017714D01*
X0179561Y0017795D01*
X0179470Y0017878D01*
X0179381Y0017964D01*
X0179295Y0018053D01*
X0179212Y0018144D01*
X0179131Y0018238D01*
X0179054Y0018335D01*
X0178980Y0018434D01*
X0178909Y0018535D01*
X0178841Y0018638D01*
X0178776Y0018744D01*
X0178715Y0018851D01*
X0178657Y0018961D01*
X0178603Y0019072D01*
X0178552Y0019184D01*
X0178504Y0019299D01*
X0178461Y0019414D01*
X0178421Y0019531D01*
X0178384Y0019650D01*
X0178352Y0019769D01*
X0178323Y0019889D01*
X0178298Y0020010D01*
X0178276Y0020132D01*
X0178259Y0020255D01*
X0178245Y0020377D01*
X0178236Y0020501D01*
X0178230Y0020624D01*
X0178228Y0020748D01*
X0186102Y0079803D02*
X0186100Y0079927D01*
X0186094Y0080050D01*
X0186085Y0080174D01*
X0186071Y0080296D01*
X0186054Y0080419D01*
X0186032Y0080541D01*
X0186007Y0080662D01*
X0185978Y0080782D01*
X0185946Y0080901D01*
X0185909Y0081020D01*
X0185869Y0081137D01*
X0185826Y0081252D01*
X0185778Y0081367D01*
X0185727Y0081479D01*
X0185673Y0081590D01*
X0185615Y0081700D01*
X0185554Y0081807D01*
X0185489Y0081913D01*
X0185421Y0082016D01*
X0185350Y0082117D01*
X0185276Y0082216D01*
X0185199Y0082313D01*
X0185118Y0082407D01*
X0185035Y0082498D01*
X0184949Y0082587D01*
X0184860Y0082673D01*
X0184769Y0082756D01*
X0184675Y0082837D01*
X0184578Y0082914D01*
X0184479Y0082988D01*
X0184378Y0083059D01*
X0184275Y0083127D01*
X0184169Y0083192D01*
X0184062Y0083253D01*
X0183952Y0083311D01*
X0183841Y0083365D01*
X0183729Y0083416D01*
X0183614Y0083464D01*
X0183499Y0083507D01*
X0183382Y0083547D01*
X0183263Y0083584D01*
X0183144Y0083616D01*
X0183024Y0083645D01*
X0182903Y0083670D01*
X0182781Y0083692D01*
X0182658Y0083709D01*
X0182536Y0083723D01*
X0182412Y0083732D01*
X0182289Y0083738D01*
X0182165Y0083740D01*
X0241713Y0211693D02*
X0241715Y0211840D01*
X0241721Y0211986D01*
X0241731Y0212132D01*
X0241745Y0212278D01*
X0241763Y0212424D01*
X0241784Y0212569D01*
X0241810Y0212713D01*
X0241840Y0212857D01*
X0241873Y0212999D01*
X0241910Y0213141D01*
X0241951Y0213282D01*
X0241996Y0213421D01*
X0242045Y0213560D01*
X0242097Y0213697D01*
X0242154Y0213832D01*
X0242213Y0213966D01*
X0242277Y0214098D01*
X0242344Y0214228D01*
X0242414Y0214357D01*
X0242488Y0214484D01*
X0242565Y0214608D01*
X0242646Y0214731D01*
X0242730Y0214851D01*
X0242817Y0214969D01*
X0242907Y0215084D01*
X0243000Y0215197D01*
X0243097Y0215308D01*
X0243196Y0215416D01*
X0243298Y0215521D01*
X0243403Y0215623D01*
X0243511Y0215722D01*
X0243622Y0215819D01*
X0243735Y0215912D01*
X0243850Y0216002D01*
X0243968Y0216089D01*
X0244088Y0216173D01*
X0244211Y0216254D01*
X0244335Y0216331D01*
X0244462Y0216405D01*
X0244591Y0216475D01*
X0244721Y0216542D01*
X0244853Y0216606D01*
X0244987Y0216665D01*
X0245122Y0216722D01*
X0245259Y0216774D01*
X0245398Y0216823D01*
X0245537Y0216868D01*
X0245678Y0216909D01*
X0245820Y0216946D01*
X0245962Y0216979D01*
X0246106Y0217009D01*
X0246250Y0217035D01*
X0246395Y0217056D01*
X0246541Y0217074D01*
X0246687Y0217088D01*
X0246833Y0217098D01*
X0246979Y0217104D01*
X0247126Y0217106D01*
X0247273Y0217104D01*
X0247419Y0217098D01*
X0247565Y0217088D01*
X0247711Y0217074D01*
X0247857Y0217056D01*
X0248002Y0217035D01*
X0248146Y0217009D01*
X0248290Y0216979D01*
X0248432Y0216946D01*
X0248574Y0216909D01*
X0248715Y0216868D01*
X0248854Y0216823D01*
X0248993Y0216774D01*
X0249130Y0216722D01*
X0249265Y0216665D01*
X0249399Y0216606D01*
X0249531Y0216542D01*
X0249661Y0216475D01*
X0249790Y0216405D01*
X0249917Y0216331D01*
X0250041Y0216254D01*
X0250164Y0216173D01*
X0250284Y0216089D01*
X0250402Y0216002D01*
X0250517Y0215912D01*
X0250630Y0215819D01*
X0250741Y0215722D01*
X0250849Y0215623D01*
X0250954Y0215521D01*
X0251056Y0215416D01*
X0251155Y0215308D01*
X0251252Y0215197D01*
X0251345Y0215084D01*
X0251435Y0214969D01*
X0251522Y0214851D01*
X0251606Y0214731D01*
X0251687Y0214608D01*
X0251764Y0214484D01*
X0251838Y0214357D01*
X0251908Y0214228D01*
X0251975Y0214098D01*
X0252039Y0213966D01*
X0252098Y0213832D01*
X0252155Y0213697D01*
X0252207Y0213560D01*
X0252256Y0213421D01*
X0252301Y0213282D01*
X0252342Y0213141D01*
X0252379Y0212999D01*
X0252412Y0212857D01*
X0252442Y0212713D01*
X0252468Y0212569D01*
X0252489Y0212424D01*
X0252507Y0212278D01*
X0252521Y0212132D01*
X0252531Y0211986D01*
X0252537Y0211840D01*
X0252539Y0211693D01*
X0252537Y0211546D01*
X0252531Y0211400D01*
X0252521Y0211254D01*
X0252507Y0211108D01*
X0252489Y0210962D01*
X0252468Y0210817D01*
X0252442Y0210673D01*
X0252412Y0210529D01*
X0252379Y0210387D01*
X0252342Y0210245D01*
X0252301Y0210104D01*
X0252256Y0209965D01*
X0252207Y0209826D01*
X0252155Y0209689D01*
X0252098Y0209554D01*
X0252039Y0209420D01*
X0251975Y0209288D01*
X0251908Y0209158D01*
X0251838Y0209029D01*
X0251764Y0208902D01*
X0251687Y0208778D01*
X0251606Y0208655D01*
X0251522Y0208535D01*
X0251435Y0208417D01*
X0251345Y0208302D01*
X0251252Y0208189D01*
X0251155Y0208078D01*
X0251056Y0207970D01*
X0250954Y0207865D01*
X0250849Y0207763D01*
X0250741Y0207664D01*
X0250630Y0207567D01*
X0250517Y0207474D01*
X0250402Y0207384D01*
X0250284Y0207297D01*
X0250164Y0207213D01*
X0250041Y0207132D01*
X0249917Y0207055D01*
X0249790Y0206981D01*
X0249661Y0206911D01*
X0249531Y0206844D01*
X0249399Y0206780D01*
X0249265Y0206721D01*
X0249130Y0206664D01*
X0248993Y0206612D01*
X0248854Y0206563D01*
X0248715Y0206518D01*
X0248574Y0206477D01*
X0248432Y0206440D01*
X0248290Y0206407D01*
X0248146Y0206377D01*
X0248002Y0206351D01*
X0247857Y0206330D01*
X0247711Y0206312D01*
X0247565Y0206298D01*
X0247419Y0206288D01*
X0247273Y0206282D01*
X0247126Y0206280D01*
X0246979Y0206282D01*
X0246833Y0206288D01*
X0246687Y0206298D01*
X0246541Y0206312D01*
X0246395Y0206330D01*
X0246250Y0206351D01*
X0246106Y0206377D01*
X0245962Y0206407D01*
X0245820Y0206440D01*
X0245678Y0206477D01*
X0245537Y0206518D01*
X0245398Y0206563D01*
X0245259Y0206612D01*
X0245122Y0206664D01*
X0244987Y0206721D01*
X0244853Y0206780D01*
X0244721Y0206844D01*
X0244591Y0206911D01*
X0244462Y0206981D01*
X0244335Y0207055D01*
X0244211Y0207132D01*
X0244088Y0207213D01*
X0243968Y0207297D01*
X0243850Y0207384D01*
X0243735Y0207474D01*
X0243622Y0207567D01*
X0243511Y0207664D01*
X0243403Y0207763D01*
X0243298Y0207865D01*
X0243196Y0207970D01*
X0243097Y0208078D01*
X0243000Y0208189D01*
X0242907Y0208302D01*
X0242817Y0208417D01*
X0242730Y0208535D01*
X0242646Y0208655D01*
X0242565Y0208778D01*
X0242488Y0208902D01*
X0242414Y0209029D01*
X0242344Y0209158D01*
X0242277Y0209288D01*
X0242213Y0209420D01*
X0242154Y0209554D01*
X0242097Y0209689D01*
X0242045Y0209826D01*
X0241996Y0209965D01*
X0241951Y0210104D01*
X0241910Y0210245D01*
X0241873Y0210387D01*
X0241840Y0210529D01*
X0241810Y0210673D01*
X0241784Y0210817D01*
X0241763Y0210962D01*
X0241745Y0211108D01*
X0241731Y0211254D01*
X0241721Y0211400D01*
X0241715Y0211546D01*
X0241713Y0211693D01*
X0013367Y0211693D02*
X0013369Y0211840D01*
X0013375Y0211986D01*
X0013385Y0212132D01*
X0013399Y0212278D01*
X0013417Y0212424D01*
X0013438Y0212569D01*
X0013464Y0212713D01*
X0013494Y0212857D01*
X0013527Y0212999D01*
X0013564Y0213141D01*
X0013605Y0213282D01*
X0013650Y0213421D01*
X0013699Y0213560D01*
X0013751Y0213697D01*
X0013808Y0213832D01*
X0013867Y0213966D01*
X0013931Y0214098D01*
X0013998Y0214228D01*
X0014068Y0214357D01*
X0014142Y0214484D01*
X0014219Y0214608D01*
X0014300Y0214731D01*
X0014384Y0214851D01*
X0014471Y0214969D01*
X0014561Y0215084D01*
X0014654Y0215197D01*
X0014751Y0215308D01*
X0014850Y0215416D01*
X0014952Y0215521D01*
X0015057Y0215623D01*
X0015165Y0215722D01*
X0015276Y0215819D01*
X0015389Y0215912D01*
X0015504Y0216002D01*
X0015622Y0216089D01*
X0015742Y0216173D01*
X0015865Y0216254D01*
X0015989Y0216331D01*
X0016116Y0216405D01*
X0016245Y0216475D01*
X0016375Y0216542D01*
X0016507Y0216606D01*
X0016641Y0216665D01*
X0016776Y0216722D01*
X0016913Y0216774D01*
X0017052Y0216823D01*
X0017191Y0216868D01*
X0017332Y0216909D01*
X0017474Y0216946D01*
X0017616Y0216979D01*
X0017760Y0217009D01*
X0017904Y0217035D01*
X0018049Y0217056D01*
X0018195Y0217074D01*
X0018341Y0217088D01*
X0018487Y0217098D01*
X0018633Y0217104D01*
X0018780Y0217106D01*
X0018927Y0217104D01*
X0019073Y0217098D01*
X0019219Y0217088D01*
X0019365Y0217074D01*
X0019511Y0217056D01*
X0019656Y0217035D01*
X0019800Y0217009D01*
X0019944Y0216979D01*
X0020086Y0216946D01*
X0020228Y0216909D01*
X0020369Y0216868D01*
X0020508Y0216823D01*
X0020647Y0216774D01*
X0020784Y0216722D01*
X0020919Y0216665D01*
X0021053Y0216606D01*
X0021185Y0216542D01*
X0021315Y0216475D01*
X0021444Y0216405D01*
X0021571Y0216331D01*
X0021695Y0216254D01*
X0021818Y0216173D01*
X0021938Y0216089D01*
X0022056Y0216002D01*
X0022171Y0215912D01*
X0022284Y0215819D01*
X0022395Y0215722D01*
X0022503Y0215623D01*
X0022608Y0215521D01*
X0022710Y0215416D01*
X0022809Y0215308D01*
X0022906Y0215197D01*
X0022999Y0215084D01*
X0023089Y0214969D01*
X0023176Y0214851D01*
X0023260Y0214731D01*
X0023341Y0214608D01*
X0023418Y0214484D01*
X0023492Y0214357D01*
X0023562Y0214228D01*
X0023629Y0214098D01*
X0023693Y0213966D01*
X0023752Y0213832D01*
X0023809Y0213697D01*
X0023861Y0213560D01*
X0023910Y0213421D01*
X0023955Y0213282D01*
X0023996Y0213141D01*
X0024033Y0212999D01*
X0024066Y0212857D01*
X0024096Y0212713D01*
X0024122Y0212569D01*
X0024143Y0212424D01*
X0024161Y0212278D01*
X0024175Y0212132D01*
X0024185Y0211986D01*
X0024191Y0211840D01*
X0024193Y0211693D01*
X0024191Y0211546D01*
X0024185Y0211400D01*
X0024175Y0211254D01*
X0024161Y0211108D01*
X0024143Y0210962D01*
X0024122Y0210817D01*
X0024096Y0210673D01*
X0024066Y0210529D01*
X0024033Y0210387D01*
X0023996Y0210245D01*
X0023955Y0210104D01*
X0023910Y0209965D01*
X0023861Y0209826D01*
X0023809Y0209689D01*
X0023752Y0209554D01*
X0023693Y0209420D01*
X0023629Y0209288D01*
X0023562Y0209158D01*
X0023492Y0209029D01*
X0023418Y0208902D01*
X0023341Y0208778D01*
X0023260Y0208655D01*
X0023176Y0208535D01*
X0023089Y0208417D01*
X0022999Y0208302D01*
X0022906Y0208189D01*
X0022809Y0208078D01*
X0022710Y0207970D01*
X0022608Y0207865D01*
X0022503Y0207763D01*
X0022395Y0207664D01*
X0022284Y0207567D01*
X0022171Y0207474D01*
X0022056Y0207384D01*
X0021938Y0207297D01*
X0021818Y0207213D01*
X0021695Y0207132D01*
X0021571Y0207055D01*
X0021444Y0206981D01*
X0021315Y0206911D01*
X0021185Y0206844D01*
X0021053Y0206780D01*
X0020919Y0206721D01*
X0020784Y0206664D01*
X0020647Y0206612D01*
X0020508Y0206563D01*
X0020369Y0206518D01*
X0020228Y0206477D01*
X0020086Y0206440D01*
X0019944Y0206407D01*
X0019800Y0206377D01*
X0019656Y0206351D01*
X0019511Y0206330D01*
X0019365Y0206312D01*
X0019219Y0206298D01*
X0019073Y0206288D01*
X0018927Y0206282D01*
X0018780Y0206280D01*
X0018633Y0206282D01*
X0018487Y0206288D01*
X0018341Y0206298D01*
X0018195Y0206312D01*
X0018049Y0206330D01*
X0017904Y0206351D01*
X0017760Y0206377D01*
X0017616Y0206407D01*
X0017474Y0206440D01*
X0017332Y0206477D01*
X0017191Y0206518D01*
X0017052Y0206563D01*
X0016913Y0206612D01*
X0016776Y0206664D01*
X0016641Y0206721D01*
X0016507Y0206780D01*
X0016375Y0206844D01*
X0016245Y0206911D01*
X0016116Y0206981D01*
X0015989Y0207055D01*
X0015865Y0207132D01*
X0015742Y0207213D01*
X0015622Y0207297D01*
X0015504Y0207384D01*
X0015389Y0207474D01*
X0015276Y0207567D01*
X0015165Y0207664D01*
X0015057Y0207763D01*
X0014952Y0207865D01*
X0014850Y0207970D01*
X0014751Y0208078D01*
X0014654Y0208189D01*
X0014561Y0208302D01*
X0014471Y0208417D01*
X0014384Y0208535D01*
X0014300Y0208655D01*
X0014219Y0208778D01*
X0014142Y0208902D01*
X0014068Y0209029D01*
X0013998Y0209158D01*
X0013931Y0209288D01*
X0013867Y0209420D01*
X0013808Y0209554D01*
X0013751Y0209689D01*
X0013699Y0209826D01*
X0013650Y0209965D01*
X0013605Y0210104D01*
X0013564Y0210245D01*
X0013527Y0210387D01*
X0013494Y0210529D01*
X0013464Y0210673D01*
X0013438Y0210817D01*
X0013417Y0210962D01*
X0013399Y0211108D01*
X0013385Y0211254D01*
X0013375Y0211400D01*
X0013369Y0211546D01*
X0013367Y0211693D01*
X0013367Y0018780D02*
X0013369Y0018927D01*
X0013375Y0019073D01*
X0013385Y0019219D01*
X0013399Y0019365D01*
X0013417Y0019511D01*
X0013438Y0019656D01*
X0013464Y0019800D01*
X0013494Y0019944D01*
X0013527Y0020086D01*
X0013564Y0020228D01*
X0013605Y0020369D01*
X0013650Y0020508D01*
X0013699Y0020647D01*
X0013751Y0020784D01*
X0013808Y0020919D01*
X0013867Y0021053D01*
X0013931Y0021185D01*
X0013998Y0021315D01*
X0014068Y0021444D01*
X0014142Y0021571D01*
X0014219Y0021695D01*
X0014300Y0021818D01*
X0014384Y0021938D01*
X0014471Y0022056D01*
X0014561Y0022171D01*
X0014654Y0022284D01*
X0014751Y0022395D01*
X0014850Y0022503D01*
X0014952Y0022608D01*
X0015057Y0022710D01*
X0015165Y0022809D01*
X0015276Y0022906D01*
X0015389Y0022999D01*
X0015504Y0023089D01*
X0015622Y0023176D01*
X0015742Y0023260D01*
X0015865Y0023341D01*
X0015989Y0023418D01*
X0016116Y0023492D01*
X0016245Y0023562D01*
X0016375Y0023629D01*
X0016507Y0023693D01*
X0016641Y0023752D01*
X0016776Y0023809D01*
X0016913Y0023861D01*
X0017052Y0023910D01*
X0017191Y0023955D01*
X0017332Y0023996D01*
X0017474Y0024033D01*
X0017616Y0024066D01*
X0017760Y0024096D01*
X0017904Y0024122D01*
X0018049Y0024143D01*
X0018195Y0024161D01*
X0018341Y0024175D01*
X0018487Y0024185D01*
X0018633Y0024191D01*
X0018780Y0024193D01*
X0018927Y0024191D01*
X0019073Y0024185D01*
X0019219Y0024175D01*
X0019365Y0024161D01*
X0019511Y0024143D01*
X0019656Y0024122D01*
X0019800Y0024096D01*
X0019944Y0024066D01*
X0020086Y0024033D01*
X0020228Y0023996D01*
X0020369Y0023955D01*
X0020508Y0023910D01*
X0020647Y0023861D01*
X0020784Y0023809D01*
X0020919Y0023752D01*
X0021053Y0023693D01*
X0021185Y0023629D01*
X0021315Y0023562D01*
X0021444Y0023492D01*
X0021571Y0023418D01*
X0021695Y0023341D01*
X0021818Y0023260D01*
X0021938Y0023176D01*
X0022056Y0023089D01*
X0022171Y0022999D01*
X0022284Y0022906D01*
X0022395Y0022809D01*
X0022503Y0022710D01*
X0022608Y0022608D01*
X0022710Y0022503D01*
X0022809Y0022395D01*
X0022906Y0022284D01*
X0022999Y0022171D01*
X0023089Y0022056D01*
X0023176Y0021938D01*
X0023260Y0021818D01*
X0023341Y0021695D01*
X0023418Y0021571D01*
X0023492Y0021444D01*
X0023562Y0021315D01*
X0023629Y0021185D01*
X0023693Y0021053D01*
X0023752Y0020919D01*
X0023809Y0020784D01*
X0023861Y0020647D01*
X0023910Y0020508D01*
X0023955Y0020369D01*
X0023996Y0020228D01*
X0024033Y0020086D01*
X0024066Y0019944D01*
X0024096Y0019800D01*
X0024122Y0019656D01*
X0024143Y0019511D01*
X0024161Y0019365D01*
X0024175Y0019219D01*
X0024185Y0019073D01*
X0024191Y0018927D01*
X0024193Y0018780D01*
X0024191Y0018633D01*
X0024185Y0018487D01*
X0024175Y0018341D01*
X0024161Y0018195D01*
X0024143Y0018049D01*
X0024122Y0017904D01*
X0024096Y0017760D01*
X0024066Y0017616D01*
X0024033Y0017474D01*
X0023996Y0017332D01*
X0023955Y0017191D01*
X0023910Y0017052D01*
X0023861Y0016913D01*
X0023809Y0016776D01*
X0023752Y0016641D01*
X0023693Y0016507D01*
X0023629Y0016375D01*
X0023562Y0016245D01*
X0023492Y0016116D01*
X0023418Y0015989D01*
X0023341Y0015865D01*
X0023260Y0015742D01*
X0023176Y0015622D01*
X0023089Y0015504D01*
X0022999Y0015389D01*
X0022906Y0015276D01*
X0022809Y0015165D01*
X0022710Y0015057D01*
X0022608Y0014952D01*
X0022503Y0014850D01*
X0022395Y0014751D01*
X0022284Y0014654D01*
X0022171Y0014561D01*
X0022056Y0014471D01*
X0021938Y0014384D01*
X0021818Y0014300D01*
X0021695Y0014219D01*
X0021571Y0014142D01*
X0021444Y0014068D01*
X0021315Y0013998D01*
X0021185Y0013931D01*
X0021053Y0013867D01*
X0020919Y0013808D01*
X0020784Y0013751D01*
X0020647Y0013699D01*
X0020508Y0013650D01*
X0020369Y0013605D01*
X0020228Y0013564D01*
X0020086Y0013527D01*
X0019944Y0013494D01*
X0019800Y0013464D01*
X0019656Y0013438D01*
X0019511Y0013417D01*
X0019365Y0013399D01*
X0019219Y0013385D01*
X0019073Y0013375D01*
X0018927Y0013369D01*
X0018780Y0013367D01*
X0018633Y0013369D01*
X0018487Y0013375D01*
X0018341Y0013385D01*
X0018195Y0013399D01*
X0018049Y0013417D01*
X0017904Y0013438D01*
X0017760Y0013464D01*
X0017616Y0013494D01*
X0017474Y0013527D01*
X0017332Y0013564D01*
X0017191Y0013605D01*
X0017052Y0013650D01*
X0016913Y0013699D01*
X0016776Y0013751D01*
X0016641Y0013808D01*
X0016507Y0013867D01*
X0016375Y0013931D01*
X0016245Y0013998D01*
X0016116Y0014068D01*
X0015989Y0014142D01*
X0015865Y0014219D01*
X0015742Y0014300D01*
X0015622Y0014384D01*
X0015504Y0014471D01*
X0015389Y0014561D01*
X0015276Y0014654D01*
X0015165Y0014751D01*
X0015057Y0014850D01*
X0014952Y0014952D01*
X0014850Y0015057D01*
X0014751Y0015165D01*
X0014654Y0015276D01*
X0014561Y0015389D01*
X0014471Y0015504D01*
X0014384Y0015622D01*
X0014300Y0015742D01*
X0014219Y0015865D01*
X0014142Y0015989D01*
X0014068Y0016116D01*
X0013998Y0016245D01*
X0013931Y0016375D01*
X0013867Y0016507D01*
X0013808Y0016641D01*
X0013751Y0016776D01*
X0013699Y0016913D01*
X0013650Y0017052D01*
X0013605Y0017191D01*
X0013564Y0017332D01*
X0013527Y0017474D01*
X0013494Y0017616D01*
X0013464Y0017760D01*
X0013438Y0017904D01*
X0013417Y0018049D01*
X0013399Y0018195D01*
X0013385Y0018341D01*
X0013375Y0018487D01*
X0013369Y0018633D01*
X0013367Y0018780D01*
M02*
