%
M48
M72
T01C0.03150
T02C0.03200
T03C0.03937
T04C0.04331
T05C0.04400
T06C0.10827
%
T01
X15000Y160000
X15000Y170000
X15000Y180000
T02
X72500Y175000
X72500Y165000
X72500Y155000
X72500Y145000
X72500Y135000
X72500Y125000
X72500Y115000
X72500Y105000
X80000Y85000
X85000Y77500
X90000Y85000
X102500Y105000
X102500Y115000
X102500Y125000
X102500Y135000
X102500Y145000
X102500Y155000
X102500Y165000
X102500Y175000
T03
X97953Y206693
X107953Y206693
X117953Y206693
X127953Y206693
X137953Y206693
X147953Y206693
X157953Y206693
X167953Y206693
X177953Y206693
X187953Y206693
X197953Y206693
X207953Y206693
X217953Y206693
X227953Y206693
X227953Y216693
X217953Y216693
X207953Y216693
X197953Y216693
X187953Y216693
X177953Y216693
X167953Y216693
X157953Y216693
X147953Y216693
X137953Y216693
X127953Y216693
X117953Y216693
X107953Y216693
X97953Y216693
X87953Y216693
X87953Y206693
X77953Y206693
X77953Y216693
X67953Y216693
X57953Y216693
X57953Y206693
X67953Y206693
X47953Y206693
X47953Y216693
X37953Y216693
X37953Y206693
T04
X235000Y180000
X235000Y170000
X235000Y125000
X235000Y115000
X235000Y105000
X235000Y95000
T05
X215000Y90000
X195000Y90000
X175000Y90000
X155000Y90000
X155000Y130000
X155000Y145000
X175000Y145000
X175000Y130000
X195000Y130000
X195000Y145000
X215000Y145000
X215000Y130000
X215000Y185000
X195000Y185000
X175000Y185000
X155000Y185000
T06
X18780Y18780
X18780Y211693
X247126Y211693
X247126Y18780
M30
