G75*
%MOIN*%
%OFA0B0*%
%FSLAX25Y25*%
%IPPOS*%
%LPD*%
%AMOC8*
5,1,8,0,0,1.08239X$1,22.5*
%
%ADD10R,0.05918X0.06706*%
%ADD11R,0.06706X0.05918*%
%ADD12C,0.07296*%
%ADD13C,0.07400*%
%ADD14C,0.11627*%
%ADD15C,0.24409*%
%ADD16R,0.06737X0.06737*%
%ADD17C,0.06737*%
%ADD18C,0.06000*%
%ADD19R,0.05950X0.05950*%
%ADD20C,0.05950*%
%ADD21C,0.06000*%
D10*
X0061260Y0080000D03*
X0068740Y0080000D03*
X0058740Y0105000D03*
X0051260Y0105000D03*
X0051260Y0115000D03*
X0058740Y0115000D03*
X0058740Y0165000D03*
X0051260Y0165000D03*
X0051260Y0175000D03*
X0058740Y0175000D03*
X0053740Y0190000D03*
X0046260Y0190000D03*
X0033740Y0190000D03*
X0026260Y0190000D03*
X0118760Y0165000D03*
X0126240Y0165000D03*
X0126240Y0115000D03*
X0118760Y0115000D03*
X0118760Y0105000D03*
X0126240Y0105000D03*
D11*
X0102500Y0086240D03*
X0102500Y0078760D03*
X0115000Y0178760D03*
X0115000Y0186240D03*
D12*
X0235000Y0180000D03*
X0235000Y0170000D03*
X0235000Y0125000D03*
X0235000Y0115000D03*
X0235000Y0105000D03*
X0235000Y0095000D03*
D13*
X0215000Y0090000D03*
X0195000Y0090000D03*
X0175000Y0090000D03*
X0155000Y0090000D03*
X0155000Y0130000D03*
X0155000Y0145000D03*
X0175000Y0145000D03*
X0175000Y0130000D03*
X0195000Y0130000D03*
X0195000Y0145000D03*
X0215000Y0145000D03*
X0215000Y0130000D03*
X0215000Y0185000D03*
X0195000Y0185000D03*
X0175000Y0185000D03*
X0155000Y0185000D03*
D14*
X0247126Y0211693D03*
X0247126Y0018780D03*
X0018780Y0018780D03*
X0018780Y0211693D03*
D15*
X0018780Y0018780D03*
X0018780Y0211693D03*
X0247126Y0211693D03*
X0247126Y0018780D03*
D16*
X0037953Y0206693D03*
D17*
X0047953Y0206693D03*
X0057953Y0206693D03*
X0067953Y0206693D03*
X0077953Y0206693D03*
X0087953Y0206693D03*
X0097953Y0206693D03*
X0107953Y0206693D03*
X0117953Y0206693D03*
X0127953Y0206693D03*
X0137953Y0206693D03*
X0147953Y0206693D03*
X0157953Y0206693D03*
X0167953Y0206693D03*
X0177953Y0206693D03*
X0187953Y0206693D03*
X0197953Y0206693D03*
X0207953Y0206693D03*
X0217953Y0206693D03*
X0227953Y0206693D03*
X0227953Y0216693D03*
X0217953Y0216693D03*
X0207953Y0216693D03*
X0197953Y0216693D03*
X0187953Y0216693D03*
X0177953Y0216693D03*
X0167953Y0216693D03*
X0157953Y0216693D03*
X0147953Y0216693D03*
X0137953Y0216693D03*
X0127953Y0216693D03*
X0117953Y0216693D03*
X0107953Y0216693D03*
X0097953Y0216693D03*
X0087953Y0216693D03*
X0077953Y0216693D03*
X0067953Y0216693D03*
X0057953Y0216693D03*
X0047953Y0216693D03*
X0037953Y0216693D03*
D18*
X0069900Y0175000D02*
X0075100Y0175000D01*
X0075100Y0165000D02*
X0069900Y0165000D01*
X0069900Y0155000D02*
X0075100Y0155000D01*
X0075100Y0145000D02*
X0069900Y0145000D01*
X0069900Y0135000D02*
X0075100Y0135000D01*
X0075100Y0125000D02*
X0069900Y0125000D01*
X0069900Y0115000D02*
X0075100Y0115000D01*
X0075100Y0105000D02*
X0069900Y0105000D01*
X0099900Y0105000D02*
X0105100Y0105000D01*
X0105100Y0115000D02*
X0099900Y0115000D01*
X0099900Y0125000D02*
X0105100Y0125000D01*
X0105100Y0135000D02*
X0099900Y0135000D01*
X0099900Y0145000D02*
X0105100Y0145000D01*
X0105100Y0155000D02*
X0099900Y0155000D01*
X0099900Y0165000D02*
X0105100Y0165000D01*
X0105100Y0175000D02*
X0099900Y0175000D01*
D19*
X0015000Y0160000D03*
D20*
X0015000Y0170000D03*
X0015000Y0180000D03*
D21*
X0080000Y0085000D03*
X0085000Y0077500D03*
X0090000Y0085000D03*
M02*
